<svg id="Group_177" data-name="Group 177" xmlns="http://www.w3.org/2000/svg" width="267.741" height="212.712" viewBox="0 0 267.741 212.712">
  <g id="Group_1" data-name="Group 1" transform="translate(180.809 60.729)">
    <path id="Path_2" data-name="Path 2" d="M595.017,351.91l1.449-10.642-.724,5.321.732-5.32c-.189-.026-18.995-2.752-27.008-13.245l-8.536,6.519C571.653,348.584,594.068,351.781,595.017,351.91Z" transform="translate(-560.93 -328.024)" fill="#01112e"/>
  </g>
  <g id="Group_4" data-name="Group 4" transform="translate(210.873 44.059)">
    <g id="Group_2" data-name="Group 2" transform="translate(0.27 0.268)">
      <path id="Path_3" data-name="Path 3" d="M650.21,314.068a16.013,16.013,0,0,1,1.531-3.751,12.229,12.229,0,0,1,2.62-3.108,8.728,8.728,0,0,1,3.573-1.914,6.66,6.66,0,0,1,1.727-.124v-.007c.013,0,.1,0,.214.012.039,0,.077,0,.117.008a6.623,6.623,0,0,1,2,.48c.414-.729.833-1.457,1.272-2.172l.01-.017.02-.024A7.773,7.773,0,0,0,665.065,300a5.755,5.755,0,0,0,.057-1.9,4.961,4.961,0,0,0-.575-1.737,12.9,12.9,0,0,1-2.55-4.188,22.234,22.234,0,0,1-1.287-4.773l-.006-.031v-.043a10.6,10.6,0,0,1,.518-3.322,6.046,6.046,0,0,1,1.979-2.858,5.884,5.884,0,0,1,3.3-1.181,9.541,9.541,0,0,1,3.346.706,11.923,11.923,0,0,1,5.188,4.123,11.393,11.393,0,0,1,2.036,6.3,12.011,12.011,0,0,1-1.691,6.313,9.741,9.741,0,0,0-.484,6.018c.011.067.029.133.044.2l4.458,2.005c.476.186.95.374,1.427.561l6.2,2.351,12.438,4.581.035.014.04.023a14.76,14.76,0,0,1,3.79,3.094,7.368,7.368,0,0,1,1.3,2.2,4.47,4.47,0,0,1,.2,2.582c.025.028.056.051.083.081a4.343,4.343,0,0,1,1.207,3.477v0l-.01.033a7.355,7.355,0,0,1-3.2,4.113,9.607,9.607,0,0,1-2.41,1.057,10.885,10.885,0,0,1-2.5.421,8.774,8.774,0,0,1-.829.782,13.119,13.119,0,0,1-2.4,1.517,28.721,28.721,0,0,1-10.724,2.877,37.316,37.316,0,0,1-11.07-.764,47.35,47.35,0,0,1-10.448-3.675l.046.019a12.143,12.143,0,0,1-2.931-1.73,10.168,10.168,0,0,1-2.29-2.52c-.131-.206-.246-.42-.358-.638a2.147,2.147,0,0,1-1.5-.028,6.838,6.838,0,0,1-1.776-.967,9.732,9.732,0,0,1-2.659-3.041A10.677,10.677,0,0,1,650.21,314.068Z" transform="translate(-649.806 -279.967)" fill="#ffe5c4"/>
    </g>
    <g id="Group_3" data-name="Group 3">
      <path id="Path_4" data-name="Path 4" d="M650.292,321.669a9.982,9.982,0,0,0,2.733,3.122,7.236,7.236,0,0,0,1.849,1.005,2.679,2.679,0,0,0,.912.164h0a2.187,2.187,0,0,0,.537-.064c.081.149.168.3.264.455a10.392,10.392,0,0,0,2.349,2.585,12.46,12.46,0,0,0,2.946,1.748,47.66,47.66,0,0,0,10.5,3.691,37.492,37.492,0,0,0,8.133.89c1,0,2.018-.041,3.015-.122a28.694,28.694,0,0,0,10.827-2.905,13.257,13.257,0,0,0,2.447-1.547,8.9,8.9,0,0,0,.78-.728,11.35,11.35,0,0,0,2.455-.425,9.864,9.864,0,0,0,2.479-1.089,7.6,7.6,0,0,0,3.314-4.263l.018-.072a4.593,4.593,0,0,0-1.26-3.686,4.813,4.813,0,0,0-.234-2.583,7.693,7.693,0,0,0-1.343-2.282,14.908,14.908,0,0,0-3.859-3.152l-.118-.058-12.441-4.583-6.194-2.349-.987-.387c-1.561-.61-3.175-1.24-4.723-1.949v0c-.018-.073-.035-.147-.048-.221A9.626,9.626,0,0,1,675.1,297a12.16,12.16,0,0,0,1.717-6.436,11.613,11.613,0,0,0-2.085-6.444,12.131,12.131,0,0,0-5.309-4.218,9.919,9.919,0,0,0-3.442-.725,6.131,6.131,0,0,0-3.465,1.235,6.347,6.347,0,0,0-2.07,2.986,10.743,10.743,0,0,0-.532,3.4l0,.066.01.057a22.356,22.356,0,0,0,1.3,4.826,13.084,13.084,0,0,0,2.583,4.253,4.735,4.735,0,0,1,.526,1.612,5.447,5.447,0,0,1-.054,1.815,7.439,7.439,0,0,1-1.716,3.326l-.048.063c-.418.678-.829,1.373-1.239,2.091a6.019,6.019,0,0,0-3.919-.4,8.927,8.927,0,0,0-3.691,1.973,12.564,12.564,0,0,0-2.678,3.177,16.316,16.316,0,0,0-1.559,3.817A10.917,10.917,0,0,0,650.292,321.669Zm10.7-16.243c-.519.925-1.037,1.891-1.562,2.912-.564,1.1-1,2.011-1.357,2.859l-.058.141a9.518,9.518,0,0,0-.839,2.957l.535.052a8.508,8.508,0,0,1,.886-2.5l.16-.338c.4-.815.87-1.683,1.476-2.728.594-1.024,1.212-2.031,1.83-3.01l.19-.3c.421-.664.841-1.316,1.252-1.951a8.685,8.685,0,0,0,2.085-3.8,6.785,6.785,0,0,0,.139-2.27,5.948,5.948,0,0,0-.683-2.24l-.09-.119a12.73,12.73,0,0,1-2.264-3.905,21.181,21.181,0,0,1-1.149-4.413c.029-1.345.33-3.761,2-5.005a4.442,4.442,0,0,1,2.491-.858,8.854,8.854,0,0,1,2.77.589,10.579,10.579,0,0,1,4.606,3.591,10.03,10.03,0,0,1,1.842,5.523,11.413,11.413,0,0,1-1.422,5.784,10.653,10.653,0,0,0-.372,6.714,15.576,15.576,0,0,0,.563,1.884c.144.412.279.8.39,1.2a15.649,15.649,0,0,1,.575,3.041,8.4,8.4,0,0,1-1.416,5.812l.407.351a8.767,8.767,0,0,0,1.927-6.212,16.681,16.681,0,0,0-.44-3.262c-.106-.494-.251-.972-.392-1.433-.072-.238-.143-.469-.206-.7,1.406.685,2.855,1.308,4.262,1.912l.987.425,6.121,2.557,12.213,4.964a13.246,13.246,0,0,1,3.334,2.9,6.04,6.04,0,0,1,1.006,1.826,3.446,3.446,0,0,1,.156.7,10.723,10.723,0,0,0-1.363-.737,22.81,22.81,0,0,0-6.767-1.642c-2.424-.3-4.662-.487-6.837-.558-.627-.018-1.2-.028-1.766-.028a36.127,36.127,0,0,0-4.879.3c.132-.41.261-.805.392-1.193.342-1.014.618-1.785.9-2.5l.111-.271a9.653,9.653,0,0,1,1.029-2.06l-.431-.32a10.142,10.142,0,0,0-1.158,2.154l-.115.263c-.3.718-.614,1.515-.979,2.507-.532,1.452-1.083,3.063-1.735,5.069-1.046,3.232-2.068,6.582-3.12,10.241l-.075.262,1.1.3.067-.263c.952-3.689,1.875-7.055,2.823-10.29.381-1.293.715-2.393,1.033-3.4l.008.062a38.377,38.377,0,0,1,6.761-.079c2.151.14,4.355.391,6.737.768a22.145,22.145,0,0,1,6.395,1.756,7.586,7.586,0,0,1,2.521,1.855,3.36,3.36,0,0,1,.876,2.523,6.085,6.085,0,0,1-2.761,3.309,8.269,8.269,0,0,1-2.106.844c-.247.063-.507.117-.787.163a4.111,4.111,0,0,0-.061-3.015,6.153,6.153,0,0,0-1.81-2.379l-.042-.037h0a4.753,4.753,0,0,0-2.319-1.236,7.083,7.083,0,0,0-2.571-.048,15.908,15.908,0,0,0-4.627,1.588,40.236,40.236,0,0,0-7.9,5.373l.339.417c1.107-.853,2.339-1.7,3.875-2.672a34.422,34.422,0,0,1,4.112-2.219,15.688,15.688,0,0,1,4.36-1.325,6.558,6.558,0,0,1,.857-.058,4,4,0,0,1,3,1.129l.063.058c1.15.962,2.056,2.63,1.335,4.024-.695,1.426-2.294,2.387-3.768,3.14a27.4,27.4,0,0,1-10.252,2.646,38.1,38.1,0,0,1-10.658-.793,46.03,46.03,0,0,1-10.17-3.48l-.064-.027a10.883,10.883,0,0,1-2.584-1.5,8.83,8.83,0,0,1-2.016-2.175,7.211,7.211,0,0,1-1.048-2.714,8.25,8.25,0,0,1,.065-2.865,8.731,8.731,0,0,1,3.656-3.7,5.476,5.476,0,0,1,2.531-.59,7.006,7.006,0,0,1,2.618.53,36.181,36.181,0,0,1,4.963,2.812,26.1,26.1,0,0,1,2.3,1.7l.067.058a5.227,5.227,0,0,1,1.665,2.03l.511-.163a5.781,5.781,0,0,0-1.708-2.389l-.061-.06a24.891,24.891,0,0,0-2.3-1.861,36.039,36.039,0,0,0-5.007-3.123,7.674,7.674,0,0,0-3.224-.717,6.657,6.657,0,0,0-2.9.638,10.193,10.193,0,0,0-4.413,4.268l-.049.112-.017.067a9.766,9.766,0,0,0-.181,3.486,8.043,8.043,0,0,0,.623,2.212,2.159,2.159,0,0,1-.8-.23,6.039,6.039,0,0,1-1.451-1.077,8.83,8.83,0,0,1-2.16-2.927,10.352,10.352,0,0,1-.479-7.084,15.249,15.249,0,0,1,1.341-3.447,12.778,12.778,0,0,1,2.208-2.921,7.793,7.793,0,0,1,3-1.959A5.5,5.5,0,0,1,660.987,305.426Z" transform="translate(-649.016 -279.181)" fill="#01112e"/>
    </g>
  </g>
  <g id="Group_5" data-name="Group 5" transform="translate(51.388 60.729)">
    <path id="Path_5" data-name="Path 5" d="M183.19,351.91l-1.449-10.642.725,5.321-.733-5.32c.189-.026,19-2.752,27.009-13.245l8.536,6.519C206.554,348.584,184.138,351.781,183.19,351.91Z" transform="translate(-181.732 -328.024)" fill="#01112e"/>
  </g>
  <g id="Group_7" data-name="Group 7" transform="translate(108.803 153.311)">
    <g id="Group_6" data-name="Group 6">
      <path id="Path_6" data-name="Path 6" d="M350.178,599.3a.412.412,0,0,1,.535.393.5.5,0,0,1-.7.186A.427.427,0,0,1,350.178,599.3Z" transform="translate(-349.956 -599.286)" fill="#01112e" fill-rule="evenodd"/>
    </g>
  </g>
  <g id="Group_9" data-name="Group 9" transform="translate(91.074 92.1)">
    <g id="Group_8" data-name="Group 8">
      <path id="Path_7" data-name="Path 7" d="M303.5,420.373a4.8,4.8,0,0,1,1.04,1.412c.624,1.388-.3,3.475-.312,4.493a15.249,15.249,0,0,0,.22,1.875,11.463,11.463,0,0,0,.379,1.9c.272.791.907,1.564,1.2,2.517a3.116,3.116,0,0,1-1.773,3.7,4.153,4.153,0,0,1-2.878-.565,8.009,8.009,0,0,1-3.009-3.8,10.726,10.726,0,0,1,0-5.507c.209-.938.515-1.731.735-2.643a8.433,8.433,0,0,1,.936-2.566C301.257,419.671,302.818,419.717,303.5,420.373Zm-.12,5.739c-.056-.681.42-1.347.4-2.031-.005-.146-.164-.391-.2-.654-.038-.338.113-.715.067-.985a4.716,4.716,0,0,0-.9-1.52,2.305,2.305,0,0,0-1.834.852,6.313,6.313,0,0,0-.657,1.565c-.183.594-.272,1.26-.516,1.973-.6,1.805-.99,4.431-.393,6.157a7.8,7.8,0,0,0,2.58,3.311,4.506,4.506,0,0,0,1.976.511,2.335,2.335,0,0,0,1.183-1.74,3.19,3.19,0,0,0-.631-1.637c-.4-.755-.561-1.75-.977-2.611-.207-.43-.52-.829-.693-1.238a10.16,10.16,0,0,1-.513-3.751c0-.515-.4-1.848.56-1.709a3.711,3.711,0,0,0,.022,1.5c.1-.084.113-.394.336-.323C303.655,424.595,303.022,425.459,303.382,426.112Z" transform="translate(-298.009 -419.939)" fill="#01112e" fill-rule="evenodd"/>
    </g>
  </g>
  <g id="Group_11" data-name="Group 11" transform="translate(93.495 101.143)">
    <g id="Group_10" data-name="Group 10">
      <path id="Path_8" data-name="Path 8" d="M306.421,447.153a1.113,1.113,0,0,1-.86.5.8.8,0,0,1-.39-1.022c.237-.169.394.09.648-.2C306.079,446.595,306.436,446.805,306.421,447.153Zm-.766-.151c.072.13.177.1.291,0-.037-.051-.065-.1-.1-.141C305.783,446.909,305.72,446.951,305.655,447Z" transform="translate(-305.103 -446.435)" fill="#01112e" fill-rule="evenodd"/>
    </g>
  </g>
  <g id="Group_13" data-name="Group 13" transform="translate(95.141 102.781)">
    <g id="Group_12" data-name="Group 12">
      <path id="Path_9" data-name="Path 9" d="M310.416,451.524c-.158.157-.3.2-.43.105C309.7,451.19,310.518,451.068,310.416,451.524Z" transform="translate(-309.926 -451.236)" fill="#01112e" fill-rule="evenodd"/>
    </g>
  </g>
  <g id="Group_15" data-name="Group 15" transform="translate(95.553 104.522)">
    <g id="Group_14" data-name="Group 14">
      <path id="Path_10" data-name="Path 10" d="M312.8,457.636c-.789.986-1.756-.125-1.662-.876A.949.949,0,0,1,312.8,457.636Zm-1.148-.68a.9.9,0,0,0,.378.52c.113-.137.191-.02.312-.161.061-.16-.1-.355-.241-.542C311.936,456.914,311.805,456.854,311.655,456.956Z" transform="translate(-311.135 -456.337)" fill="#01112e" fill-rule="evenodd"/>
    </g>
  </g>
  <g id="Group_17" data-name="Group 17" transform="translate(94.047 101.567)">
    <g id="Group_16" data-name="Group 16">
      <path id="Path_11" data-name="Path 11" d="M306.915,447.678c.033.045.061.09.1.141-.114.1-.219.132-.291,0C306.787,447.77,306.849,447.727,306.915,447.678Z" transform="translate(-306.722 -447.678)" fill="#00b8d7" fill-rule="evenodd"/>
    </g>
  </g>
  <g id="Group_19" data-name="Group 19" transform="translate(96.074 104.958)">
    <g id="Group_18" data-name="Group 18">
      <path id="Path_12" data-name="Path 12" d="M313.109,457.615c.144.187.3.382.241.542-.121.141-.2.024-.312.161a.9.9,0,0,1-.378-.52C312.811,457.7,312.941,457.755,313.109,457.615Z" transform="translate(-312.661 -457.615)" fill="#00b8d7" fill-rule="evenodd"/>
    </g>
  </g>
  <g id="Group_21" data-name="Group 21" transform="translate(92.117 93.069)">
    <g id="Group_20" data-name="Group 20">
      <path id="Path_13" data-name="Path 13" d="M305.208,425.659c-.223-.071-.232.239-.336.323a3.714,3.714,0,0,1-.021-1.5c-.96-.14-.564,1.194-.56,1.709a10.159,10.159,0,0,0,.513,3.751c.173.409.486.808.693,1.238.415.86.575,1.856.977,2.611a3.189,3.189,0,0,1,.631,1.637,2.335,2.335,0,0,1-1.183,1.74,4.506,4.506,0,0,1-1.976-.511,7.8,7.8,0,0,1-2.58-3.311c-.6-1.726-.21-4.352.393-6.157.245-.713.334-1.379.516-1.973a6.306,6.306,0,0,1,.657-1.565,2.3,2.3,0,0,1,1.834-.852,4.714,4.714,0,0,1,.9,1.52c.045.269-.105.647-.067.985.031.262.19.507.195.654.024.684-.452,1.35-.4,2.031C305.037,427.33,305.67,426.466,305.208,425.659Zm-2.047,5.195c-.254.288-.411.028-.648.2a.8.8,0,0,0,.39,1.022,1.113,1.113,0,0,0,.86-.5C303.778,431.224,303.421,431.014,303.161,430.854Zm.99,2.032c.131.1.272.051.43-.105C304.683,432.325,303.868,432.446,304.151,432.886Zm.359,1.77c-.093.751.874,1.862,1.663.876A.949.949,0,0,0,304.51,434.657Z" transform="translate(-301.068 -422.78)" fill="#e42f2b" fill-rule="evenodd"/>
    </g>
  </g>
  <g id="Group_23" data-name="Group 23" transform="translate(117.25 124.447)">
    <g id="Group_22" data-name="Group 22">
      <path id="Path_14" data-name="Path 14" d="M374.706,522.615a14.114,14.114,0,0,0,1.911-1.515,6.022,6.022,0,0,0,1.3-1.8,5.493,5.493,0,0,0,.479-2.149,17.512,17.512,0,0,0-.166-2.437,5.167,5.167,0,0,1,1.083,2.364,4.527,4.527,0,0,1-.323,2.712,4.767,4.767,0,0,1-1.811,2.029A4.913,4.913,0,0,1,374.706,522.615Z" transform="translate(-374.706 -514.717)" fill="#ba1e1e"/>
    </g>
  </g>
  <g id="Group_25" data-name="Group 25" transform="translate(72.697)">
    <g id="Group_24" data-name="Group 24">
      <path id="Path_15" data-name="Path 15" d="M306.035,273.827A61.868,61.868,0,1,1,367.9,211.959,61.939,61.939,0,0,1,306.035,273.827Zm0-119.612a57.744,57.744,0,1,0,57.745,57.744A57.809,57.809,0,0,0,306.035,154.215Z" transform="translate(-244.166 -150.091)" fill="#01112e"/>
    </g>
  </g>
  <g id="Group_27" data-name="Group 27" transform="translate(74.759 2.358)">
    <g id="Group_26" data-name="Group 26">
      <path id="Path_16" data-name="Path 16" d="M344.817,269.549a20.547,20.547,0,0,1,2.781-3.187c1.824-1.922,2.276-4.581,4.781-7.238a3.21,3.21,0,0,0,.361-.476,59.8,59.8,0,1,0-91.628-7.408c.006.008.011.018.017.027,2.946,4.283,2.41,7.87,3.692,11.041a13.89,13.89,0,0,1,.954,3.863c-.1,1.542-1.621,2.684-1.824,4.351a5.353,5.353,0,0,0,5.737,6.073c-.1,3.117-1.1,5.989.086,8.5a6.509,6.509,0,0,0,6.858,2.993,14.181,14.181,0,0,1,1.133,6.374,15.4,15.4,0,0,1-1.3,4.156c-.846,2.519-2.231,4.967-2.694,7.527a11.486,11.486,0,0,0,3.13,9.948,7.937,7.937,0,0,0,9.294,1.445c1.99-.924,3.545-3.683,3.93-5.971.981-5.833-2.927-10.036-2.111-15.647.352-2.418.794-4.6,1.058-7.255,3.187,1.113,7.007.493,8.763-1.836a8.95,8.95,0,0,0,1.285-7.495c-.368-1.055-1.062-2.7-.5-3.506,2.082-.322,3.3,1.866,3.648,3.663.618,3.228-1.412,5.225-1.831,8.615-.655,5.291,3.381,8.175,7.9,8.257a6.726,6.726,0,0,1,.067,2.708,110.55,110.55,0,0,0,.6,12.665c.1,1.336.415,2.614.469,3.894a46.237,46.237,0,0,1-.112,4.9c-.2,2.87-.557,5.683-.761,8.526-.2,2.918-.578,5.854-.681,8.7-.784,2.035-.878,4.19-1.334,6.31-.419,1.939-1.169,3.662-1.476,5.594-.42,2.662-1.047,6.485-.38,9.2.683,2.768,3.107,6.35,5.342,7.436a6.48,6.48,0,0,0,5.731.1c1.855-1.068,3.019-4.095,3.914-6.468a22.073,22.073,0,0,0,1.472-5.7c.081-1.088-.258-2.408-.258-3.761,0-1.1.252-2.185.171-3.189-.048-.618-.29-1.236-.344-1.828-.073-.749.049-1.5,0-2.223-.086-1.343-.468-2.738-.611-4.157a29.688,29.688,0,0,0-.518-4.925,15.524,15.524,0,0,1-.782-1.829,30.574,30.574,0,0,1,0-3.67c-.093-3.658-.173-7.578-.173-11.1a103.162,103.162,0,0,1,.087-10.521,29.172,29.172,0,0,0,.346-3.386c-.019-.657-.222-1.115-.259-1.733-.148-2.231.049-4.575.085-6.759a52.923,52.923,0,0,1,.519-6.572c.407-2.773,1.571-5.262,2.089-7.721a4.513,4.513,0,0,1,.43-1.836c2.4.3,2.79,2.927,2.674,4.8s-.914,4.059-.89,5.723c.08,4.4,3.36,6.4,7.4,6.091-.27,7.309-.587,14.842-.587,22.371a72.206,72.206,0,0,0,.151,7.938c.486,4.184,3.276,7.9,7.5,7.635a8.79,8.79,0,0,0,5.035-2.414c1.46-1.491,2.029-4.691,1.917-7.918-.166-4.753-1.571-8.042-2-12.365-.215-2.214-.77-4.486-.868-6.371-.118-2.355.259-4.741,1.479-6.273a4.8,4.8,0,0,0,4.252-1.261,7.129,7.129,0,0,0,1.479-2.316,8.722,8.722,0,0,0-.173-4.726,7.151,7.151,0,0,0-3.561-4.15,19.853,19.853,0,0,1-1.911-.871,6.327,6.327,0,0,1-1.91-2.8c-.876-2.768-.279-6.089.7-8.693C343.475,272.186,344.024,270.838,344.817,269.549Z" transform="translate(-250.207 -157)" fill="#00b8d7"/>
    </g>
  </g>
  <g id="Group_29" data-name="Group 29" transform="translate(160.685 150.493)">
    <g id="Group_28" data-name="Group 28">
      <path id="Path_17" data-name="Path 17" d="M506.955,606.274c-.37,5.8-1.149,2.566-2.5,8.027a11.37,11.37,0,0,1-2.484,4.774,8.924,8.924,0,0,0,4.295-.854c1.991-.924,3.518-3.708,4.08-5.988,1.355-5.46-1.725-8.656-2.789-14.237-.319-1.672-.952-5.278-.671-6.965C505.188,591.542,507.115,603.836,506.955,606.274Z" transform="translate(-501.968 -591.03)" fill="#038c93"/>
    </g>
  </g>
  <g id="Group_31" data-name="Group 31" transform="translate(135.646 141.283)">
    <g id="Group_30" data-name="Group 30">
      <path id="Path_18" data-name="Path 18" d="M431.753,587.284c0,3.527-1.848,7.9-1.755,11.555a30.458,30.458,0,0,0,0,3.671,15.513,15.513,0,0,0,.782,1.828,29.776,29.776,0,0,1,.519,4.925c.142,1.421.524,2.817.61,4.158.049.727-.074,1.473,0,2.221.054.593.3,1.21.344,1.83.081,1-.171,2.088-.171,3.189,0,1.353.339,2.672.259,3.762a22.1,22.1,0,0,1-1.473,5.7,23.365,23.365,0,0,1-2.263,4.822,5.9,5.9,0,0,0,4.24-.423c1.856-1.067,3.02-4.095,3.914-6.467a22.079,22.079,0,0,0,1.473-5.7c.08-1.089-.258-2.409-.258-3.761,0-1.1.252-2.185.171-3.19-.048-.619-.289-1.237-.344-1.829-.073-.749.049-1.495,0-2.222-.086-1.342-.468-2.737-.61-4.158a29.812,29.812,0,0,0-.519-4.925,15.46,15.46,0,0,1-.782-1.828,30.5,30.5,0,0,1,0-3.67c-.093-3.657-.173-7.579-.173-11.1a103.332,103.332,0,0,1,.086-10.522,29.014,29.014,0,0,0,.346-3.387c-.018-.656-.222-1.114-.259-1.731-.135-2.042-.893-3.958-.838-5.982C432.416,583.711,431.753,583.728,431.753,587.284Z" transform="translate(-428.605 -564.044)" fill="#038c93"/>
    </g>
  </g>
  <g id="Group_33" data-name="Group 33" transform="translate(90.908 45.751)">
    <g id="Group_32" data-name="Group 32">
      <path id="Path_19" data-name="Path 19" d="M349.632,284.148a162.75,162.75,0,0,0-50.872,7.173,31.161,31.161,0,0,0-1.221,9.69,31.843,31.843,0,0,0,3.312,13.1c6.754,13.69,23.017,23.144,41.689,22.715,24.2-.561,43.276-17.491,42.614-37.824a31.631,31.631,0,0,0-.821-6.135C372,287.819,359.647,284.234,349.632,284.148Z" transform="translate(-297.523 -284.14)" fill="#ffe5c4"/>
    </g>
  </g>
  <g id="Group_35" data-name="Group 35" transform="translate(95.058 45.751)">
    <g id="Group_34" data-name="Group 34">
      <path id="Path_20" data-name="Path 20" d="M378.994,299.78l2.089-.073h.013c.254-.009.517-.013.787-.022.076-.005.158-.005.236-.006.2-.009.4-.011.613-.018.14-.007.29-.011.434-.013.17-.006.338-.011.515-.015h.043c.62-.015,1.276-.032,1.964-.052-5.98-.09-2.823-.273.867-.465-3.7-.023-6.86-.058-.9-.431-.314.008-.616.011-.915.022-.117,0-.231,0-.343,0-.2.009-.4.009-.6.016-.1,0-.209,0-.31.006-.217,0-.432.009-.64.009-.1,0-.207,0-.307.009-.223,0-.436.009-.643.009-.121,0-.238,0-.354.008l-.384,0c-.12,0-.24.006-.359.006-.1,0-.2,0-.3,0-.258,0-.5.009-.738.009-.055,0-.113,0-.17,0-.129,0-.254,0-.378.007h-.69c-.37,0-.7,0-.984,0h-.106c-.089,0-.167-.007-.246-.007h-.1c-.073,0-.146,0-.208-.006v0c-.886-.026-1.062-.087-.422-.191.016,0,.036,0,.054-.008.063-.009.13-.022.206-.03l.093-.013c.078-.011.162-.021.254-.031l.089-.013c.123-.013.261-.031.411-.048.018,0,.034,0,.052,0,.135-.013.281-.03.434-.048l.141-.013c.144-.013.3-.03.453-.041a1.216,1.216,0,0,1,.124-.016l1.412-.13a.8.8,0,0,0,.1-.008q.354-.032.742-.065c.04,0,.08-.009.12-.009.591-.052,1.241-.108,1.946-.164a.786.786,0,0,0,.1-.008c.316-.021.645-.052.981-.08.063,0,.123-.006.185-.011.378-.032.765-.063,1.169-.095-4.391.2-7.795.342-10.151.4h0c-4.409.112-5.132-.059-1.724-.637h0c.649-.108,1.446-.236,2.4-.377.077-.008.162-.021.244-.037l.6-.086c.221-.033.448-.065.683-.1.133-.017.271-.038.407-.056.32-.047.647-.092.994-.138.064-.013.132-.022.2-.033.391-.051.789-.105,1.209-.165l.039,0c.467-.066.956-.13,1.46-.2.016,0,.035,0,.052,0,.507-.071,1.03-.139,1.575-.214.018,0,.04,0,.058,0,.549-.074,1.116-.145,1.7-.225-.363.035-.723.071-1.073.1l-.3.026c-.235.02-.466.043-.7.065-.131.013-.256.024-.387.032-.226.024-.453.044-.673.065l-.257.022c-.257.023-.507.043-.754.071-.055,0-.114.008-.169.014-.28.026-.553.051-.82.073a.59.59,0,0,0-.1.009c-3.441.3-6.118.52-8.019.622h0c-3.653.205-4.464.019-2.326-.665h0c1.96-.632,6.4-1.687,13.425-3.247h0q.706-.16,1.438-.323c-.64.116-1.256.227-1.862.329l-.15.025c-.57.107-1.118.2-1.657.291-.074.017-.15.026-.221.039-.526.1-1.033.182-1.524.267-.077.014-.149.024-.225.037-.491.09-.963.167-1.422.243-.061.012-.128.023-.189.03-.462.077-.907.155-1.339.225-.049.011-.1.019-.151.026-.438.074-.854.141-1.255.206-.04.008-.078.008-.117.015-.407.071-.8.132-1.174.188-.022,0-.049.007-.068.011-.382.056-.747.113-1.093.164-.015,0-.025.007-.039.007-.356.052-.69.1-1.005.14h0c-7.413,1.025-4.435-.333,8.643-4.763h0c.746-.256,1.52-.515,2.335-.79a.541.541,0,0,1-.092-.032c-.99.283-1.918.552-2.81.8-.312.094-.621.176-.922.262-.135.039-.272.076-.408.117-.337.1-.662.186-.98.27-.087.028-.166.05-.25.076-.354.094-.7.19-1.028.286a.072.072,0,0,0-.032.009c-1.91.524-3.485.948-4.733,1.256a.041.041,0,0,1-.022,0c-.233.059-.454.113-.668.165-.022,0-.043.011-.067.017l-.572.135a.712.712,0,0,1-.071.013c-.176.039-.346.081-.505.106a.09.09,0,0,1-.041.011c-.987.208-1.532.258-1.643.156,0,0-.012-.009-.012-.013a.058.058,0,0,1-.008-.052c0-.007,0-.017.008-.026a.32.32,0,0,1,.049-.07c.013-.013.021-.026.036-.039s.064-.056.1-.086c.022-.017.043-.034.07-.052a1.388,1.388,0,0,1,.154-.1.88.88,0,0,1,.1-.062c.064-.041.13-.081.206-.128.036-.022.075-.044.11-.061.2-.112.429-.241.7-.377a.079.079,0,0,1,.025-.013c.094-.053.2-.1.3-.152s.172-.091.267-.136.211-.1.319-.158.22-.1.337-.164.226-.1.338-.16c.133-.068.269-.126.41-.2.113-.054.232-.107.349-.16.158-.078.325-.152.493-.231.116-.052.236-.11.356-.163.187-.089.379-.178.578-.266.118-.052.234-.106.357-.163.228-.1.47-.212.719-.317.1-.053.193-.1.295-.138.334-.15.677-.3,1.036-.461l.061-.028c.8-.358,1.665-.736,2.59-1.144-.105-.028-.2-.06-.307-.088q-2.008.763-3.525,1.33c-.023.006-.044.017-.067.023-.208.074-.407.152-.6.22-.061.024-.119.042-.178.063-.16.059-.316.117-.466.169-.055.019-.109.043-.162.06-.171.061-.337.119-.495.178-.022.009-.043.015-.066.022-.176.065-.341.121-.5.175-.047.02-.092.033-.141.05l-.308.1c-.054.017-.106.034-.159.049a2.3,2.3,0,0,1-.236.081l-.157.052c-.072.021-.138.043-.2.065s-.16.048-.231.067a1.429,1.429,0,0,1-.149.045c-.046.013-.09.027-.13.035s-.071.017-.1.026-.079.021-.116.026-.044.008-.066.015-.068.016-.1.019h-.02a.609.609,0,0,1-.145,0h-.005a.035.035,0,0,1-.027-.024s0,0,0,0a.028.028,0,0,1,0-.031s0-.008.006-.008a1.472,1.472,0,0,1,.36-.3.024.024,0,0,0,.017-.007c.275-.178.679-.416,1.225-.717a.139.139,0,0,0,.027-.013c.435-.238.955-.509,1.559-.825.016-.009.031-.013.043-.022.139-.074.287-.148.432-.227.756-.39,1.623-.827,2.6-1.321-.13-.039-.266-.076-.4-.117-3.23,1.39-3.17,1.212-.652-.178-.489-.134-.976-.264-1.456-.39-1.346.642-1.56.652-.418-.1-.193-.052-.386-.1-.576-.147-1.245.662-2.234,1.177-2.964,1.533h0c-1.665.812-1.964.8-.807-.121h0c.511-.4,1.3-.981,2.377-1.745-.223-.052-.449-.108-.673-.156-1.17.7-2.154,1.269-2.959,1.72h0c-2.92,1.624-3.458,1.61-1.585-.2h0c.543-.521,1.281-1.188,2.225-2.011-.309-.06-.617-.121-.922-.177-1.253.888-2.241,1.556-2.984,2.016h0c-1.61.992-2.037.975-1.3-.1a26.744,26.744,0,0,1,1.869-2.31c-.39-.06-.775-.117-1.159-.165-2.366,2.012-2.763,1.953-1.361-.158a48.825,48.825,0,0,0-5.013-.313,179.62,179.62,0,0,0-22.422,1.162c1.323,1.8.926,1.847-1.319.154-.422.052-.832.108-1.249.164a28.332,28.332,0,0,1,1.909,2.1c.038.052.075.1.111.147s.076.113.113.162.064.1.089.152.043.084.058.117.021.056.027.077a.246.246,0,0,1,.007.111.167.167,0,0,1-.022.03.127.127,0,0,1-.055.032.123.123,0,0,1-.045.013.673.673,0,0,1-.152-.015c-.03-.011-.064-.017-.095-.028a2.214,2.214,0,0,1-.217-.073A1.518,1.518,0,0,1,333,288.4c-.075-.03-.157-.066-.248-.111-.051-.021-.1-.049-.157-.076-.126-.061-.259-.134-.4-.212-.066-.033-.14-.073-.213-.111-.111-.068-.227-.13-.347-.2-.069-.041-.135-.074-.2-.119h0c-.7-.4-1.56-.932-2.584-1.581-.325.052-.657.1-.98.149.781.608,1.428,1.128,1.962,1.571.361.3.66.555.907.777h0c.247.228.437.412.572.559a2.183,2.183,0,0,1,.158.195s0,.007,0,.007c.078.111.1.185.07.227,0,0,0,0,0,.006-.034.037-.117.043-.256.018,0-.007-.008-.007-.017-.007a3.99,3.99,0,0,1-.566-.184c-.013,0-.03-.013-.045-.017-.243-.1-.532-.221-.871-.377a.825.825,0,0,0-.082-.041c-.338-.158-.728-.344-1.162-.562-.043-.022-.086-.042-.135-.065-.206-.1-.422-.217-.646-.329-.746-.379-1.6-.825-2.558-1.336-.228.037-.454.075-.684.119.824.514,1.508.952,2.061,1.316h0c2.384,1.568,2.268,1.739-.143.685a.093.093,0,0,0-.034-.015c-.321-.143-.69-.307-1.092-.491-.716-.327-1.552-.719-2.517-1.178-.177.037-.349.07-.529.1,2.522,1.421,2.054,1.334-.684.133-.531.1-1.059.216-1.585.325.81.385,1.477.705,1.988.963.109.056.212.108.3.153,0,.007.009.007.015.009.089.043.172.089.247.132a.016.016,0,0,1,.013,0c1.125.594.793.564-1.311-.207h0c-.6-.222-1.347-.5-2.248-.845-.1.021-.209.041-.31.067.689.3,1.336.587,1.944.856.163.073.314.138.47.21.112.05.231.1.342.154.145.065.282.123.42.184.12.058.247.115.367.165l.356.165c.128.054.248.111.365.165s.227.1.338.153.211.1.311.143.215.1.317.148.193.091.291.134.186.087.274.123.176.089.262.128l.244.117.223.109a2.3,2.3,0,0,0,.224.105c.057.033.111.059.162.085.162.083.307.159.435.226.025.013.053.03.077.043.06.031.112.06.163.089.03.015.064.036.09.05.047.03.087.052.123.078l.065.039c.036.026.064.043.09.065a.189.189,0,0,1,.039.031.342.342,0,0,1,.05.047.07.07,0,0,0,.014.015.069.069,0,0,1,.009.041l0,0a.038.038,0,0,1-.033.022.023.023,0,0,1-.011,0c-.419.069-3.308-.8-8.935-2.648h0c-.595-.2-1.207-.4-1.865-.613l-.168.038c.573.217,1.128.422,1.663.633.883.333,1.711.649,2.491.953.112.043.233.086.344.129.214.08.41.16.614.238l.675.26c.176.07.341.134.512.2.224.085.454.177.667.26.161.063.308.121.465.185.2.083.415.165.61.243.144.056.279.113.416.171.187.074.375.15.55.218.131.057.25.107.377.156.161.07.328.139.48.2.12.047.226.091.336.139.144.058.289.125.418.184.105.041.2.087.3.128.118.052.239.1.344.156s.175.078.262.121.191.086.276.13l.215.109c.076.037.15.074.217.108s.11.067.166.095.111.062.157.091a.834.834,0,0,1,.115.081.62.62,0,0,1,.1.071.557.557,0,0,1,.064.062.387.387,0,0,1,.042.056.058.058,0,0,1,.008.043.065.065,0,0,1-.011.037.094.094,0,0,1-.044.03.266.266,0,0,1-.069.024c-.03,0-.063.008-.1.011s-.073.007-.117.007a1.5,1.5,0,0,1-.166-.007c-.051,0-.109-.009-.165-.011-.071-.007-.145-.009-.227-.018-.067-.009-.141-.016-.214-.027l-.291-.04c-.083-.015-.171-.029-.26-.039-.114-.02-.234-.035-.359-.059-.1-.017-.2-.034-.3-.049-.138-.028-.279-.054-.434-.085-.105-.017-.219-.039-.332-.06-.164-.033-.331-.065-.51-.1-.118-.024-.248-.052-.374-.074-.191-.039-.38-.082-.587-.121-.128-.026-.266-.056-.4-.087-.217-.043-.437-.091-.67-.139-.142-.029-.3-.065-.443-.1-.243-.05-.484-.1-.74-.16-.146-.03-.3-.064-.449-.1-.282-.067-.564-.128-.858-.2-.138-.03-.284-.058-.425-.1-.322-.069-.643-.143-.979-.221-.149-.037-.3-.069-.456-.1-.355-.083-.707-.163-1.078-.252-.141-.03-.3-.068-.446-.1-.383-.086-.767-.177-1.169-.268-.243-.058-.5-.124-.753-.175-.336-.085-.664-.159-1.01-.241l-1.858-.441c22.288,6.3,22.149,6.779-1.092,3.769,22.229,3.833,21.352,4.179-.5,3.166,19.346,1.611,17.72,1.867-.132,1.88,13.841.442,11.458.641-.063.931,5.978.091,2.822.272-.868.47,3.7.019,6.861.054.893.422,11.526-.247,13.921-.156.128.921.555-.026,1.091-.045,1.614-.073h.06q.724-.03,1.409-.062c.1-.006.186-.011.281-.013l1.1-.044c.127-.009.248-.014.372-.017.3-.012.6-.028.894-.036l.465-.02c.234-.008.463-.017.688-.028.19,0,.374-.012.557-.017.167-.006.334-.013.493-.021.211-.005.42-.013.623-.022.11,0,.216,0,.324-.008.229-.006.455-.013.669-.022.06,0,.115,0,.174,0a33.874,33.874,0,0,1,4.113.019h0c.342.061.2.167-.44.314h0c-.084.02-.177.046-.278.061-.025.007-.05.011-.077.015-.1.021-.21.043-.328.065-.022.006-.047.008-.071.015-.371.067-.817.147-1.34.234-.085.01-.164.026-.252.036-.146.024-.3.05-.45.069-.1.019-.222.037-.333.052-.154.028-.3.05-.463.076-.26.036-.536.078-.82.122l-.386.049c-.217.037-.435.067-.662.1l-.416.06c-.246.033-.5.07-.767.107-.126.017-.244.037-.373.054-.4.049-.8.105-1.229.167-.06.01-.125.013-.184.028-.4.053-.8.109-1.226.163-.11.014-.222.028-.33.043-.376.054-.767.1-1.165.153-.134.022-.267.039-.407.054-.51.072-1.034.135-1.58.21.638-.063,1.257-.117,1.86-.173h.023c4.245-.394,7.588-.683,10.024-.846h0c7.132-.486,6.433.077-2.543,2.193v0c-.58.139-1.191.275-1.835.429a.069.069,0,0,0-.037.011c-.312.067-.628.141-.95.214l-.051.013q-1,.227-2.091.472l-.238.051c-.263.06-.53.124-.8.184-.129.024-.257.054-.39.086-.231.05-.467.1-.7.155-.149.036-.3.062-.443.1l-1.123.249,1.109-.2a1.809,1.809,0,0,0,.23-.045c2.558-.448,4.8-.833,6.755-1.163h0c13.6-2.265,12.368-1.361-3.264,3.939-.492.164-1,.335-1.527.513-.154.054-.307.1-.466.158l-1.5.5c1.2-.348,2.328-.666,3.391-.972h0c17.943-5.117,16.429-4.075-1.927,3.883,17.644-6.851,16.394-5.948,1,1.648,12.2-5.508,10.254-4.335.482.8,5.212-2.468,2.59-.977-.482.752,3.2-1.555,5.948-2.874,1.012-.035,9.8-5.1,11.913-6.039.631.705,14.914-8.237,16.427-8.782,1.286,1.455,17.6-10.907,18.549-11.028,2.39,2.341,17.518-13.167,17.928-12.841,3.247,2.583,14.994-14.3,14.905-13.492,2.91,1.875,11.334-13.266,10.77-11.963,1.8,1,7.4-9.841,6.394-8.013.878.49,3.1-4.3,1.686-1.919.011.854,1.886-2.677,3.51-4.957.869-.447,5.561-8.482,6.854-10.175.974.362,8.181-13.336,9.19-14.436,2.014.747,8.945-16.778,9.711-17.275,3.539,1.076,7.5-18.732,8.069-18.615,4.485.916,4.56-18.685,4.972-17.945,3.768.416,1.922-16.261,2.221-14.891,2.24.114.522-11.637.761-9.631,1.105.053.108-5.028.323-2.374.558.727.027-3.107.068-5.766.506-.754-.295-9.683-.188-11.7,1.1-.106-.965-14.979-.757-16.354,2.231-.21-2.412-18.282-2.051-19.035,3.729-.6-4.86-19.338-4.3-19.477,4.411-1.122-.14-.34-.272-.667-.4-1-.044-.1-.082-.2-.121-.3h0c-6.011-14.782-5.913-15.823.972-4.813.2.314.4.643.612.98.04.063.08.127.118.193.213.336.425.68.645,1.035.024.043.053.086.079.126.492.8,1.01,1.639,1.563,2.538-.178-.316-.343-.62-.51-.923-.949-1.733-1.758-3.222-2.434-4.488h0c-3.679-6.886-3.354-7,.612-1.5.072.1.148.205.222.312.1.132.2.266.3.409.086.119.172.24.258.366s.2.275.3.414.187.27.285.405c.076.106.154.221.232.327.238.338.486.691.744,1.054.055.079.11.156.163.235.146.2.291.416.44.624.084.121.168.236.253.359.137.2.273.388.414.594.225.315.449.64.682.973-.173-.268-.337-.528-.5-.78-.07-.114-.139-.22-.207-.329-.1-.148-.188-.293-.278-.433-.069-.113-.142-.223-.209-.33q-.185-.295-.358-.567c-.089-.139-.174-.276-.257-.4-.043-.073-.089-.143-.132-.214-.083-.134-.165-.261-.242-.387-.018-.028-.03-.048-.045-.074-.18-.281-.346-.552-.5-.8a.126.126,0,0,0-.027-.037c-.673-1.089-1.12-1.846-1.354-2.291v0c-.308-.58-.261-.63.1-.236.251.28.649.774,1.188,1.469h0c.084.108.173.221.263.338.013.015.028.037.043.054.088.113.173.23.266.351.015.017.028.036.043.056.258.335.54.706.838,1.1.066.086.13.174.2.262s.126.167.192.249c.091.125.181.244.275.37.05.067.1.135.153.2.108.147.215.29.326.44.051.069.1.134.151.2.121.17.248.338.377.509.039.058.082.108.123.164.171.227.344.468.526.706-2.937-4.378-1.163-2.177.888.407-1.844-2.689-3.413-5-.038-.855-6.064-8.228-7.186-10.008.844-.527-.318-.4-.622-.792-.919-1.173-.034-.046-.068-.089-.1-.135-.255-.325-.505-.647-.743-.959-.057-.069-.106-.132-.162-.2-.227-.29-.446-.576-.658-.849-.013-.017-.027-.032-.04-.052-1.274-1.645-2.307-3-3.079-4.044-2.323-3.142-2.3-3.5.486-.78.157.152.323.318.493.485.041.037.077.076.12.117.16.161.33.333.5.5.063.066.121.124.186.189.165.164.337.338.51.515.085.086.164.164.249.256.162.16.332.332.5.511.112.112.222.227.336.342.145.147.3.307.449.463s.31.313.47.481c.121.128.253.259.379.394.2.2.389.4.591.608.12.128.254.267.382.4.559.579,1.145,1.19,1.775,1.847q-.543-.617-1.057-1.2c-.252-.29-.5-.571-.738-.851-.087-.1-.174-.2-.259-.294-.25-.285-.486-.559-.722-.827-.075-.086-.151-.178-.228-.264-.227-.264-.451-.519-.668-.775-.074-.087-.151-.173-.225-.26-.213-.24-.415-.481-.615-.71-.073-.083-.142-.162-.212-.251-.2-.225-.391-.451-.575-.67l-.166-.2c-.189-.221-.374-.439-.551-.645-.021-.027-.04-.055-.061-.077-.2-.232-.383-.457-.563-.671h0c-3.968-4.757-3.824-5.242.945-1.412.242.2.5.405.77.624a.149.149,0,0,1,.031.026c.259.21.529.431.811.667.03.024.06.045.09.073.265.221.539.444.823.68.069.057.14.117.21.178.257.213.519.435.791.662.113.092.23.191.346.286.244.208.49.418.748.632.181.152.375.312.561.472.2.169.4.338.608.516.31.264.634.537.963.814.108.1.209.185.317.273.454.392.927.79,1.408,1.2q-.689-.65-1.339-1.258c-.158-.154-.306-.292-.459-.438-.266-.251-.532-.5-.788-.742-.2-.19-.389-.368-.578-.547s-.378-.364-.561-.536c-.223-.212-.438-.413-.652-.616-.135-.133-.27-.262-.4-.39-.225-.215-.448-.427-.663-.637-.1-.1-.2-.193-.3-.294-.231-.216-.454-.436-.669-.643-.063-.067-.126-.126-.191-.187-.234-.231-.461-.452-.678-.665-.028-.026-.052-.05-.081-.082-.232-.228-.461-.452-.677-.667-4.6-4.6-4.283-5.006,1.257-1.524h0c1.756,1.107,4.032,2.6,6.847,4.475l.177.121c.42.278.846.566,1.288.859.5.338,1.016.683,1.549,1.043-3.142-2.332-5.671-4.225-7.588-5.708a.061.061,0,0,1-.031-.019l-.772-.6c-.045-.039-.1-.078-.146-.113-.2-.16-.386-.307-.572-.454-4.311-3.409-4.01-3.7.841-1.223.295.153.606.314.933.487,0,0,.006,0,.007,0,2.341,1.217,5.528,2.956,9.56,5.175-.447-.269-.878-.526-1.3-.785-.074-.045-.151-.092-.231-.135-.412-.253-.81-.5-1.192-.724-.043-.03-.082-.054-.126-.08-.346-.212-.682-.414-1-.61-.068-.044-.139-.085-.208-.126-.34-.212-.668-.409-.983-.606-.07-.041-.139-.082-.2-.126q-.378-.233-.729-.444c-.078-.054-.16-.1-.239-.154-.26-.16-.507-.312-.744-.459-.094-.056-.181-.112-.267-.168-.175-.111-.339-.213-.5-.312-.1-.061-.195-.121-.285-.182-.175-.113-.343-.217-.5-.321-.088-.058-.175-.108-.258-.163l-.355-.232c-.1-.068-.205-.133-.3-.2l-.277-.182c-.07-.047-.139-.091-.2-.139-1.8-1.219-1.579-1.307.5-.406.206.088.429.19.672.3l.092.042.406.186a.939.939,0,0,1,.123.057l.81.372c.058.03.116.057.177.083.156.074.317.147.482.223.059.033.127.063.19.094.3.138.6.281.919.433l.272.13c.174.083.346.169.525.251.129.061.261.126.394.191.267.13.545.26.827.4.161.073.316.152.482.229s.35.169.528.258c.205.1.413.2.626.3s.442.217.67.325c.261.13.527.259.8.39l.423.209c.386.186.778.377,1.185.576-11.709-6.217-9.534-5.372.582-.739-5.113-2.6-2.285-1.416,1.015-.013-3.182-1.58-5.9-2.945-.531-.725-10.093-4.675-12.111-5.765.429-.819-.53-.229-1.035-.45-1.535-.665-.163-.074-.319-.141-.484-.212-.342-.15-.68-.3-1.01-.442l-.415-.181c-.342-.148-.673-.3-.994-.436-.105-.046-.209-.093-.311-.136-.355-.158-.7-.308-1.026-.453-.068-.028-.134-.06-.2-.09-.376-.162-.734-.325-1.077-.474-.013-.01-.03-.013-.043-.023-1.122-.5-2.068-.932-2.83-1.289-3.4-1.594-3.179-1.77,1.167-.434.187.06.371.115.572.175.038.013.087.026.127.042.891.284,1.928.608,3.113,1a.573.573,0,0,1,.1.027c.383.129.778.252,1.189.388.393.13.8.262,1.224.4a1.7,1.7,0,0,0,.168.056q1.467.488,3.16,1.055c-.338-.131-.664-.251-.993-.377-.805-.3-1.571-.593-2.307-.874-.114-.042-.224-.085-.334-.128-.2-.074-.4-.15-.6-.228-.3-.115-.592-.226-.874-.336-.091-.034-.183-.066-.272-.1-.288-.108-.574-.214-.846-.323a1.283,1.283,0,0,1-.147-.058q-1.612-.624-2.937-1.141c-8.37-3.32-7.7-3.608,2.949-1.193h0q1.567.357,3.419.788c.054.015.107.026.165.039.21.047.427.1.642.154.132.028.262.058.392.09s.249.054.369.086c.843.2,1.728.405,2.654.626-.609-.171-1.192-.338-1.764-.5l-.189-.054q-2.732-.78-4.952-1.423h0c-15.028-4.391-12.519-4.452,8-1.789-21.365-3.69-21.383-4.153-1.954-3.283v0c.788.037,1.6.07,2.449.111-.515-.043-1.01-.08-1.5-.128-.372-.026-.739-.06-1.1-.093v0c-14.643-1.256-14.541-1.58-2.534-1.65.372,0,.755,0,1.15-.009h1.227c.282,0,.567,0,.855,0h.466c.509-.005,1.027-.005,1.565-.005-.41-.012-.809-.026-1.191-.04-.04,0-.078,0-.117,0-.352-.007-.692-.02-1.019-.035h-.1c-.293-.013-.571-.022-.849-.028-.151-.011-.3-.015-.445-.017-.106,0-.207-.011-.312-.013l-1.022-.042h-.039c-.158-.009-.307-.013-.457-.022-5.123-.216-5-.372-1.078-.529Z" transform="translate(-309.684 -284.141)" fill="#e42f2b"/>
    </g>
  </g>
  <g id="Group_37" data-name="Group 37" transform="translate(115.25 45.755)">
    <g id="Group_36" data-name="Group 36">
      <path id="Path_21" data-name="Path 21" d="M393.173,284.15q-5.99.051-11.447.449c-7.7,2.332-13.108,8.606-12.874,15.852.294,9.034,9.251,16.167,20,15.919s19.235-7.776,18.941-16.814C407.558,292.081,401.386,285.916,393.173,284.15Z" transform="translate(-368.845 -284.15)" fill="#01112e"/>
    </g>
  </g>
  <g id="Group_39" data-name="Group 39" transform="translate(113.43 52.953)">
    <g id="Group_38" data-name="Group 38">
      <path id="Path_22" data-name="Path 22" d="M378.154,310.848c.356,3.389-2.619,6.38-6.653,6.686s-7.594-2.2-7.959-5.588,2.621-6.381,6.652-6.678S377.793,307.459,378.154,310.848Z" transform="translate(-363.513 -305.242)" fill="#ffe5c4"/>
    </g>
  </g>
  <g id="Group_41" data-name="Group 41" transform="translate(109.646 53.429)">
    <g id="Group_40" data-name="Group 40">
      <path id="Path_23" data-name="Path 23" d="M359.486,309.34c.175,1.635-1.257,3.073-3.2,3.227a3.42,3.42,0,0,1-3.844-2.7,3.177,3.177,0,0,1,3.209-3.225A3.408,3.408,0,0,1,359.486,309.34Z" transform="translate(-352.426 -306.634)" fill="#ffe5c4"/>
    </g>
  </g>
  <g id="Group_43" data-name="Group 43" transform="translate(79.008 44.283)">
    <g id="Group_42" data-name="Group 42">
      <path id="Path_24" data-name="Path 24" d="M262.658,292.484a101.536,101.536,0,0,1,13.156-5.381,140.162,140.162,0,0,1,13.729-3.828,135.855,135.855,0,0,1,28.373-3.428,108.514,108.514,0,0,1,28.469,3.248,79.983,79.983,0,0,1,26,11.572,121.188,121.188,0,0,0-26.741-8.194,145.891,145.891,0,0,0-27.67-2.193,203,203,0,0,0-27.785,2.382c-4.611.724-9.219,1.544-13.8,2.529Q269.493,290.613,262.658,292.484Z" transform="translate(-262.658 -279.837)" fill="#01112e"/>
    </g>
  </g>
  <g id="Group_51" data-name="Group 51" transform="translate(126.195 56.985)" opacity="0.08">
    <g id="Group_45" data-name="Group 45" transform="translate(0 0.002)">
      <g id="Group_44" data-name="Group 44">
        <path id="Path_25" data-name="Path 25" d="M405.116,318.259c.115-.1.179-.157.213-.186l.044-.04c-.3-.29-.62-.682-.919-.971a7.707,7.707,0,0,1-3.119,2.028h0c-.14.051-.279.1-.42.146,0,0,.019.032.056.086l0,0c.009.012.017.026.027.041a7.721,7.721,0,0,0,1.291,1.42c.106.092.212.178.319.261h0a4.321,4.321,0,0,0,.752.51c.085.048.168.093.249.13a.109.109,0,0,1,.01-.018l.031-.067a1.808,1.808,0,0,0,.1-.343h0c.016-.075.031-.16.043-.254a4.771,4.771,0,0,1,.39-1.711A6.864,6.864,0,0,1,405.116,318.259Zm-1.422,2.221q-.009.158-.029.313c-.027.206-.066.412-.11.617l-.01.042-.038-.021a4.222,4.222,0,0,1-.665-.423,6.8,6.8,0,0,1-.6-.514c-.189-.182-.371-.37-.543-.566-.088-.1-.171-.2-.255-.3s-.163-.2-.238-.312c.171.2.349.39.528.576s.368.371.558.547.389.346.595.5a4.623,4.623,0,0,0,.61.4c.045-.185.087-.374.122-.562.018-.1.036-.2.048-.307a1.905,1.905,0,0,0,.013-.311A1.639,1.639,0,0,1,403.694,320.48Z" transform="translate(-400.913 -317.062)" fill="#ffe5c4"/>
      </g>
    </g>
    <g id="Group_50" data-name="Group 50" transform="translate(3.402)">
      <g id="Group_47" data-name="Group 47" transform="translate(0 1.159)">
        <g id="Group_46" data-name="Group 46">
          <path id="Path_26" data-name="Path 26" d="M419.428,321.487a6.856,6.856,0,0,0-.935-1.037c-1.034,1.125-1.975,2.56-3.216,3.317-.042.024-.082.051-.123.077-.041-.026-.082-.053-.121-.077-1.243-.757-2.185-2.191-3.219-3.315a6.8,6.8,0,0,0-.933,1.038,20.858,20.858,0,0,0,3.365,3.029c-.525.432-1.038.916-1.542,1.362A7.9,7.9,0,0,0,410.9,328a.8.8,0,0,0,.069.065.018.018,0,0,1,0,.005,2.092,2.092,0,0,0,1.3.414,10.288,10.288,0,0,1,2.877-3.25,10.245,10.245,0,0,1,2.881,3.249,2.09,2.09,0,0,0,1.3-.417l0,0a.828.828,0,0,0,.07-.066,7.9,7.9,0,0,0-1.805-2.122c-.5-.444-1.016-.927-1.54-1.36A20.894,20.894,0,0,0,419.428,321.487Z" transform="translate(-410.88 -320.45)" fill="#ffe5c4"/>
        </g>
      </g>
      <g id="Group_49" data-name="Group 49" transform="translate(7.489)">
        <g id="Group_48" data-name="Group 48">
          <path id="Path_27" data-name="Path 27" d="M436.864,319.081h0a7.732,7.732,0,0,1-3.12-2.026c-.3.289-.619.681-.919.972l.045.04.211.185a6.753,6.753,0,0,1,.933,1.039,4.749,4.749,0,0,1,.394,1.713c.01.092.027.176.041.251h0a1.785,1.785,0,0,0,.1.343l.032.066a.133.133,0,0,0,.01.02c.078-.04.162-.082.246-.131a4.313,4.313,0,0,0,.754-.511h0c.106-.082.211-.168.316-.26a6.712,6.712,0,0,0,.541-.51,6.606,6.606,0,0,0,.749-.909.322.322,0,0,0,.027-.046s0,0,0,0c.036-.055.056-.087.056-.087C437.142,319.182,437,319.133,436.864,319.081Zm-.12.558c-.083.1-.167.2-.254.3-.171.2-.354.387-.543.567a6.422,6.422,0,0,1-.6.514,4.148,4.148,0,0,1-.665.424l-.039.02-.009-.042q-.068-.308-.111-.616c-.013-.1-.022-.208-.028-.313a1.446,1.446,0,0,1,.01-.312,1.643,1.643,0,0,0,.014.31c.012.105.029.207.047.308.035.19.077.377.123.562a4.888,4.888,0,0,0,.608-.4c.206-.16.4-.328.594-.5s.375-.36.556-.547.359-.381.531-.578C436.9,319.435,436.824,319.536,436.743,319.639Z" transform="translate(-432.823 -317.055)" fill="#ffe5c4"/>
        </g>
      </g>
    </g>
  </g>
  <g id="Group_53" data-name="Group 53" transform="translate(159.717 98.374)">
    <g id="Group_52" data-name="Group 52">
      <path id="Path_28" data-name="Path 28" d="M506.612,438.407a3.2,3.2,0,0,0-1.935,3.029,3.281,3.281,0,0,1,1.461-1.676,4.34,4.34,0,0,0-.911,1.531,4.225,4.225,0,0,0-.4,2.446,7.379,7.379,0,0,0,.51,1.315c.572,1.341,2.164,2.613,1.713,4.745a4.8,4.8,0,0,1-1.019,1.788,2.861,2.861,0,0,1-3.836-.29,4.109,4.109,0,0,1-.618-2.74c.082-.974.768-1.965.22-2.847a3.208,3.208,0,0,0-1.825-.182,1.5,1.5,0,0,1,1.349-.548,2.579,2.579,0,0,0-2.188-.145,1.985,1.985,0,0,1,2.589-.366,2.749,2.749,0,0,1,1.058,1.971c.023,1.092-.541,1.757-.437,2.883a5.133,5.133,0,0,0,.146.913,1.958,1.958,0,0,0,2.885.767,3.424,3.424,0,0,0,.8-1.315c.355-1.382-.568-2.291-.984-3.138a12.257,12.257,0,0,1-1.279-3.394,5.5,5.5,0,0,1,0-1.131,4.065,4.065,0,0,1,2.3-3.649C506.276,438.346,506.532,438.263,506.612,438.407Z" transform="translate(-499.132 -438.324)" fill="#01112e" fill-rule="evenodd"/>
    </g>
  </g>
  <g id="Group_55" data-name="Group 55" transform="translate(111.385 103.25)">
    <g id="Group_54" data-name="Group 54">
      <path id="Path_29" data-name="Path 29" d="M364.769,454.111c-.568.441-1.337.682-1.426,1.6.417,1.756,2.052,2.541,1.9,4.624a3.735,3.735,0,0,1-3.2,3.258c-2.405.37-4.235-.8-4.5-2.906a11.74,11.74,0,0,1,.177-1.955c.033-.525-.144-1.135.3-1.48,1.606.686.227,2.956,1.123,4.327,1.04,1.581,4.162.745,4.743-.592.933-2.149-1.779-3.536-1.54-5.807.13-1.236,1.376-2.754,2.726-2.552-.484.668-1.329.966-1.6,1.837.014.055-.021.058-.058.059A2.011,2.011,0,0,1,364.769,454.111Z" transform="translate(-357.521 -452.609)" fill="#01112e" fill-rule="evenodd"/>
    </g>
  </g>
  <g id="Group_57" data-name="Group 57" transform="translate(90.686 53.809)">
    <g id="Group_56" data-name="Group 56">
      <path id="Path_30" data-name="Path 30" d="M298.093,307.749a36.936,36.936,0,0,0-.733,9.211,30.035,30.035,0,0,0,.588,4.562,21.112,21.112,0,0,0,1.357,4.327l.005.011.016.04a35.209,35.209,0,0,0,3.545,6.679,43.126,43.126,0,0,0,4.738,5.913,41.053,41.053,0,0,0,12.224,8.756,46.045,46.045,0,0,0,14.522,3.95c1.256.138,2.516.224,3.78.274l1.912.049c.62.012,1.25.011,1.879-.005a55.315,55.315,0,0,0,7.539-.724,51.569,51.569,0,0,0,14.4-4.522,38.326,38.326,0,0,0,11.942-9.105,37.415,37.415,0,0,0,4.349-6.193q.93-1.656,1.692-3.4c.261-.587.483-1.155.742-1.773a18.475,18.475,0,0,0,.644-1.767,32.106,32.106,0,0,0,.775-15.138,31.279,31.279,0,0,1-.051,15.349,37.482,37.482,0,0,1-19.384,23.435,50.7,50.7,0,0,1-14.826,4.82,57.237,57.237,0,0,1-7.776.784c-.654.018-1.306.028-1.971.01l-1.937-.06c-1.3-.057-2.6-.152-3.9-.3a45.99,45.99,0,0,1-15.027-4.217,41.045,41.045,0,0,1-12.508-9.3,41.856,41.856,0,0,1-4.722-6.212,36,36,0,0,1-3.435-7.016l.02.051a21.313,21.313,0,0,1-1.229-4.584,30.475,30.475,0,0,1-.391-4.674,33.92,33.92,0,0,1,.288-4.663A36.944,36.944,0,0,1,298.093,307.749Z" transform="translate(-296.873 -307.749)" fill="#01112e"/>
    </g>
  </g>
  <g id="Group_59" data-name="Group 59" transform="translate(79.408 47.782)">
    <g id="Group_58" data-name="Group 58">
      <path id="Path_31" data-name="Path 31" d="M263.83,290.2c.109.02.546.165.564-.051C264.267,290.021,263.947,290.143,263.83,290.2Z" transform="translate(-263.83 -290.092)" fill="#01112e"/>
    </g>
  </g>
  <g id="Group_61" data-name="Group 61" transform="translate(80.995 48.982)">
    <g id="Group_60" data-name="Group 60">
      <path id="Path_32" data-name="Path 32" d="M268.48,293.642c.269-.016.061.24.157.31.171-.069.488.01.513-.206A.812.812,0,0,0,268.48,293.642Z" transform="translate(-268.48 -293.607)" fill="#01112e"/>
    </g>
  </g>
  <g id="Group_63" data-name="Group 63" transform="translate(78.737 50.968)">
    <g id="Group_62" data-name="Group 62">
      <path id="Path_33" data-name="Path 33" d="M262.688,299.68a1.555,1.555,0,0,1-.823-.255C261.844,299.873,262.506,299.807,262.688,299.68Z" transform="translate(-261.865 -299.425)" fill="#01112e"/>
    </g>
  </g>
  <g id="Group_114" data-name="Group 114" transform="translate(83.835 12.362)">
    <g id="Group_65" data-name="Group 65" transform="translate(18.585)">
      <g id="Group_64" data-name="Group 64">
        <path id="Path_34" data-name="Path 34" d="M335.308,186.319a3.325,3.325,0,0,1,2.8,1.451,5.85,5.85,0,0,1-.242,4.344,5.336,5.336,0,0,1-2.7,1.979c-2.257.6-3.826-1.438-3.907-3.38a5.754,5.754,0,0,1,.77-2.8,3.458,3.458,0,0,1,1.158-1.063c.315-.129.675-.17,1.013-.29A4.566,4.566,0,0,1,335.308,186.319Zm-.579.773c-1.747.312-2.9,2.683-2.363,4.49a2.4,2.4,0,0,0,1.879,1.641,3.037,3.037,0,0,0,1.544-.435,3.476,3.476,0,0,0,1.741-3.284,2.332,2.332,0,0,0-1.593-2.461C335.6,187.231,335.188,187.013,334.729,187.092Z" transform="translate(-331.254 -186.311)" fill="#01112e" fill-rule="evenodd"/>
      </g>
    </g>
    <g id="Group_67" data-name="Group 67" transform="translate(19.563 0.733)">
      <g id="Group_66" data-name="Group 66">
        <path id="Path_35" data-name="Path 35" d="M337.825,188.459a2.332,2.332,0,0,1,1.593,2.461,3.476,3.476,0,0,1-1.741,3.284,3.036,3.036,0,0,1-1.544.435A2.4,2.4,0,0,1,334.254,193c-.542-1.807.616-4.178,2.363-4.49C337.075,188.428,337.486,188.646,337.825,188.459Zm-1.11,1.592c.1.02.514.155.531-.048C337.126,189.886,336.825,190,336.715,190.051Zm1.64,1.353c.162-.066.459.01.484-.194a.765.765,0,0,0-.63-.1C338.462,191.1,338.267,191.339,338.355,191.4Zm-1.5,1.784a1.461,1.461,0,0,1-.774-.24C336.065,193.371,336.688,193.308,336.859,193.189Z" transform="translate(-334.119 -188.459)" fill="#038c93" fill-rule="evenodd"/>
      </g>
    </g>
    <g id="Group_69" data-name="Group 69" transform="translate(5.481 11.679)">
      <g id="Group_68" data-name="Group 68">
        <path id="Path_36" data-name="Path 36" d="M296.984,220.543c.024.152-.147.107-.1.289a1.452,1.452,0,0,1,1.353,2.028c-.374,1.288-3.644,3.713-5.07,2.028a1.8,1.8,0,0,1-.192-1.688,4.84,4.84,0,0,1,3.281-2.656C296.491,220.5,296.827,220.575,296.984,220.543Zm.531,1.882c.1-.849-.578-1.108-1.353-1.012-1.134.136-2.609,1.528-2.414,2.847C294.718,225.363,297.381,223.544,297.515,222.425Z" transform="translate(-292.858 -220.531)" fill="#01112e" fill-rule="evenodd"/>
      </g>
    </g>
    <g id="Group_71" data-name="Group 71" transform="translate(6.353 12.542)">
      <g id="Group_70" data-name="Group 70">
        <path id="Path_37" data-name="Path 37" d="M295.431,225.926c-.195-1.32,1.281-2.711,2.414-2.847.775-.1,1.456.163,1.353,1.012C299.065,225.21,296.4,227.029,295.431,225.926Z" transform="translate(-295.414 -223.06)" fill="#038c93" fill-rule="evenodd"/>
      </g>
    </g>
    <g id="Group_73" data-name="Group 73" transform="translate(14.311 16.518)">
      <g id="Group_72" data-name="Group 72">
        <path id="Path_38" data-name="Path 38" d="M319.288,234.708c.24.155-.136.383,0,.579a7.24,7.24,0,0,1,.822.2c.716.845-.744,1.756-1.353,1.011-.147-.652.394-.741.243-1.255C319.065,235.031,319.243,234.935,319.288,234.708Zm-.1,1.545a.393.393,0,0,0,.579-.239c-.113-.065-.332-.021-.434-.1C319.3,236.038,319.206,236.1,319.192,236.253Z" transform="translate(-318.732 -234.708)" fill="#01112e" fill-rule="evenodd"/>
      </g>
    </g>
    <g id="Group_75" data-name="Group 75" transform="translate(24.474 16.563)">
      <g id="Group_74" data-name="Group 74">
        <path id="Path_39" data-name="Path 39" d="M348.847,234.844a.237.237,0,0,1,0,.288.275.275,0,0,1-.34-.24C348.675,234.93,348.692,234.821,348.847,234.844Z" transform="translate(-348.507 -234.841)" fill="#01112e" fill-rule="evenodd"/>
      </g>
    </g>
    <g id="Group_77" data-name="Group 77" transform="translate(14.771 17.725)">
      <g id="Group_76" data-name="Group 76">
        <path id="Path_40" data-name="Path 40" d="M320.224,238.246c.1.078.322.033.434.1a.393.393,0,0,1-.579.239C320.093,238.435,320.183,238.368,320.224,238.246Z" transform="translate(-320.079 -238.246)" fill="#b21212" fill-rule="evenodd"/>
      </g>
    </g>
    <g id="Group_79" data-name="Group 79" transform="translate(2.212 19.172)">
      <g id="Group_78" data-name="Group 78">
        <path id="Path_41" data-name="Path 41" d="M283.581,242.484c.356.144.849.149,1.205.289.2.783-.592,1.174-1.3.92C283,243.28,283.519,242.78,283.581,242.484Zm.1.631c-.072.294.4.312.434.093C283.982,243.165,283.841,242.971,283.677,243.115Z" transform="translate(-283.282 -242.484)" fill="#01112e" fill-rule="evenodd"/>
      </g>
    </g>
    <g id="Group_81" data-name="Group 81" transform="translate(6.85 19.366)">
      <g id="Group_80" data-name="Group 80">
        <path id="Path_42" data-name="Path 42" d="M297.356,244.02c-.178.1-.315-.005-.435-.1a.55.55,0,0,1,.148-.484c-.037-.139-.23-.126-.195-.336C297.4,242.845,297.606,243.641,297.356,244.02Z" transform="translate(-296.87 -243.052)" fill="#01112e" fill-rule="evenodd"/>
      </g>
    </g>
    <g id="Group_83" data-name="Group 83" transform="translate(2.6 19.75)">
      <g id="Group_82" data-name="Group 82">
        <path id="Path_43" data-name="Path 43" d="M284.859,244.326c-.034.218-.507.2-.435-.094C284.589,244.088,284.729,244.282,284.859,244.326Z" transform="translate(-284.417 -244.18)" fill="#b21212" fill-rule="evenodd"/>
      </g>
    </g>
    <g id="Group_85" data-name="Group 85" transform="translate(30.449 21.068)">
      <g id="Group_84" data-name="Group 84">
        <path id="Path_44" data-name="Path 44" d="M367.279,248.368c-.086.275-.209.784-.53.866C365.2,249.641,366.457,247.178,367.279,248.368Zm-.915.481c.226.019.411,0,.384-.241A.258.258,0,0,0,366.365,248.849Z" transform="translate(-366.013 -248.04)" fill="#01112e" fill-rule="evenodd"/>
      </g>
    </g>
    <g id="Group_87" data-name="Group 87" transform="translate(30.8 21.601)">
      <g id="Group_86" data-name="Group 86">
        <path id="Path_45" data-name="Path 45" d="M367.427,249.636c.027.239-.158.26-.384.241A.258.258,0,0,1,367.427,249.636Z" transform="translate(-367.043 -249.602)" fill="#b21212" fill-rule="evenodd"/>
      </g>
    </g>
    <g id="Group_89" data-name="Group 89" transform="translate(24.763 23.484)">
      <g id="Group_88" data-name="Group 88">
        <path id="Path_46" data-name="Path 46" d="M350.563,255.393c.035.6-.976.857-1.206.34C349.3,255.028,350.244,254.952,350.563,255.393Zm-.774.243a.344.344,0,0,0,.339-.192C349.913,255.4,349.826,255.5,349.789,255.636Z" transform="translate(-349.354 -255.119)" fill="#01112e" fill-rule="evenodd"/>
      </g>
    </g>
    <g id="Group_91" data-name="Group 91" transform="translate(25.198 23.799)">
      <g id="Group_90" data-name="Group 90">
        <path id="Path_47" data-name="Path 47" d="M350.967,256.052a.343.343,0,0,1-.339.192C350.665,256.1,350.752,256.011,350.967,256.052Z" transform="translate(-350.628 -256.043)" fill="#b21212" fill-rule="evenodd"/>
      </g>
    </g>
    <g id="Group_93" data-name="Group 93" transform="translate(41.271 24.975)">
      <g id="Group_92" data-name="Group 92">
        <path id="Path_48" data-name="Path 48" d="M399.369,259.769c-.033.758-1.25.995-1.643.433C397.663,259.339,398.935,259.339,399.369,259.769Zm-1.256.338c.3.1.75.036.77-.291C398.656,259.784,398.144,259.791,398.113,260.107Z" transform="translate(-397.723 -259.487)" fill="#01112e" fill-rule="evenodd"/>
      </g>
    </g>
    <g id="Group_95" data-name="Group 95" transform="translate(41.661 25.292)">
      <g id="Group_94" data-name="Group 94">
        <path id="Path_49" data-name="Path 49" d="M399.634,260.428c-.02.327-.473.393-.77.29C398.895,260.4,399.408,260.4,399.634,260.428Z" transform="translate(-398.864 -260.416)" fill="#b21212" fill-rule="evenodd"/>
      </g>
    </g>
    <g id="Group_97" data-name="Group 97" transform="translate(3.425 27.677)">
      <g id="Group_96" data-name="Group 96">
        <path id="Path_50" data-name="Path 50" d="M287.223,267.636c-.1.1-.274.032-.384,0C286.787,267.334,287.288,267.317,287.223,267.636Z" transform="translate(-286.835 -267.403)" fill="#01112e" fill-rule="evenodd"/>
      </g>
    </g>
    <g id="Group_99" data-name="Group 99" transform="translate(16.393 30.951)">
      <g id="Group_98" data-name="Group 98">
        <path id="Path_51" data-name="Path 51" d="M325.095,277c.212.614-.686.08,0,0Z" transform="translate(-324.832 -276.996)" fill="#01112e" fill-rule="evenodd"/>
      </g>
    </g>
    <g id="Group_101" data-name="Group 101" transform="translate(34.608 32.016)">
      <g id="Group_100" data-name="Group 100">
        <path id="Path_52" data-name="Path 52" d="M378.592,280.165c-.007.055.01.085.047.1a.272.272,0,0,1-.339.24c-.02-.041-.042-.086-.1-.095A.244.244,0,0,1,378.592,280.165Z" transform="translate(-378.201 -280.117)" fill="#01112e" fill-rule="evenodd"/>
      </g>
    </g>
    <g id="Group_103" data-name="Group 103" transform="translate(26.889 32.446)">
      <g id="Group_102" data-name="Group 102">
        <path id="Path_53" data-name="Path 53" d="M355.871,281.38c.013.174-.068.252-.24.242a.275.275,0,0,1-.047-.191A.4.4,0,0,1,355.871,281.38Z" transform="translate(-355.583 -281.377)" fill="#01112e" fill-rule="evenodd"/>
      </g>
    </g>
    <g id="Group_105" data-name="Group 105" transform="translate(29.639 32.931)">
      <g id="Group_104" data-name="Group 104">
        <path id="Path_54" data-name="Path 54" d="M363.69,282.8h.243c-.01.057.01.088.047.1.007.121-.074.152-.147.194a.184.184,0,0,1-.192-.194C363.69,282.9,363.68,282.835,363.69,282.8Z" transform="translate(-363.642 -282.798)" fill="#01112e" fill-rule="evenodd"/>
      </g>
    </g>
    <g id="Group_107" data-name="Group 107" transform="translate(4.635 34.089)">
      <g id="Group_106" data-name="Group 106">
        <path id="Path_55" data-name="Path 55" d="M291.1,287.209c-.318-.109-.181-.337-.095-.582-.179-.032-.213.078-.193.244a2.307,2.307,0,0,0-.434-.291c.054-.417.876-.546,1.061-.144A.832.832,0,0,1,291.1,287.209Z" transform="translate(-290.38 -286.192)" fill="#01112e" fill-rule="evenodd"/>
      </g>
    </g>
    <g id="Group_109" data-name="Group 109" transform="translate(27.372 13.817)">
      <g id="Group_108" data-name="Group 108">
        <path id="Path_56" data-name="Path 56" d="M357,226.794c.141.106,1,1.25.34,1.253A2.045,2.045,0,0,0,357,226.794Z" transform="translate(-356.998 -226.794)" fill="#01112e" fill-rule="evenodd"/>
      </g>
    </g>
    <g id="Group_111" data-name="Group 111" transform="translate(0 28.009)">
      <g id="Group_110" data-name="Group 110">
        <path id="Path_57" data-name="Path 57" d="M277.38,268.376c.108.083-.21.141-.244.24-.073.3.178.277.2.482,0,.226-.346.306-.531.194C277.019,269.014,276.944,268.439,277.38,268.376Z" transform="translate(-276.8 -268.376)" fill="#01112e" fill-rule="evenodd"/>
      </g>
    </g>
    <g id="Group_113" data-name="Group 113" transform="translate(11.303 15.504)">
      <g id="Group_112" data-name="Group 112">
        <path id="Path_58" data-name="Path 58" d="M310.105,232.8a.621.621,0,0,1,.336-1.061C311.328,231.685,311.222,233.175,310.105,232.8Z" transform="translate(-309.918 -231.737)" fill="#01112e" fill-rule="evenodd"/>
      </g>
    </g>
  </g>
  <g id="Group_155" data-name="Group 155" transform="translate(77.634 66.182)">
    <g id="Group_116" data-name="Group 116" transform="translate(7.71)">
      <g id="Group_115" data-name="Group 115">
        <path id="Path_59" data-name="Path 59" d="M281.958,344.337c-.212.344-.582.207-.734-.086C281.327,343.866,281.892,343.955,281.958,344.337Zm-.517-.1c.093.088.184.166.261.087C281.7,344.211,281.53,344.077,281.442,344.237Z" transform="translate(-281.224 -344.003)" fill="#01112e" fill-rule="evenodd"/>
      </g>
    </g>
    <g id="Group_118" data-name="Group 118" transform="translate(7.928 0.161)">
      <g id="Group_117" data-name="Group 117">
        <path id="Path_60" data-name="Path 60" d="M282.123,344.634c-.077.079-.168,0-.261-.087C281.951,344.387,282.118,344.521,282.123,344.634Z" transform="translate(-281.862 -344.474)" fill="#00b8d7" fill-rule="evenodd"/>
      </g>
    </g>
    <g id="Group_120" data-name="Group 120" transform="translate(8.83 7.438)">
      <g id="Group_119" data-name="Group 119">
        <path id="Path_61" data-name="Path 61" d="M285.618,366.433a.655.655,0,0,1-1.114-.274c.043-.039.05-.077.027-.111A.6.6,0,0,1,285.618,366.433Zm-.785-.262c.17.144.28.115.277.3.083-.059.171-.027.248-.129A.334.334,0,0,0,284.833,366.171Z" transform="translate(-284.504 -365.795)" fill="#01112e" fill-rule="evenodd"/>
      </g>
    </g>
    <g id="Group_122" data-name="Group 122" transform="translate(9.158 7.74)">
      <g id="Group_121" data-name="Group 121">
        <path id="Path_62" data-name="Path 62" d="M285.993,366.931c-.078.1-.165.07-.248.129,0-.189-.107-.16-.277-.3A.334.334,0,0,1,285.993,366.931Z" transform="translate(-285.467 -366.682)" fill="#00b8d7" fill-rule="evenodd"/>
      </g>
    </g>
    <g id="Group_124" data-name="Group 124" transform="translate(35.572 31.424)">
      <g id="Group_123" data-name="Group 123">
        <path id="Path_63" data-name="Path 63" d="M363.408,436.35a.34.34,0,0,1-.422.181c-.1-.076-.067-.162-.128-.242C363.037,435.915,363.382,436.09,363.408,436.35Z" transform="translate(-362.858 -436.074)" fill="#01112e" fill-rule="evenodd"/>
      </g>
    </g>
    <g id="Group_126" data-name="Group 126" transform="translate(31.03 28.027)">
      <g id="Group_125" data-name="Group 125">
        <path id="Path_64" data-name="Path 64" d="M349.712,426.406a.322.322,0,0,1-.162-.2C349.7,426,349.985,426.213,349.712,426.406Z" transform="translate(-349.55 -426.122)" fill="#01112e" fill-rule="evenodd"/>
      </g>
    </g>
    <g id="Group_128" data-name="Group 128" transform="translate(35.135 33.74)">
      <g id="Group_127" data-name="Group 127">
        <path id="Path_65" data-name="Path 65" d="M361.85,443.249a.325.325,0,0,1-.273-.234C361.76,442.654,362.175,443.008,361.85,443.249Z" transform="translate(-361.577 -442.861)" fill="#01112e" fill-rule="evenodd"/>
      </g>
    </g>
    <g id="Group_130" data-name="Group 130" transform="translate(4.179 11.331)">
      <g id="Group_129" data-name="Group 129">
        <path id="Path_66" data-name="Path 66" d="M271.043,377.2a.19.19,0,0,1,.024.287.275.275,0,0,1-.189-.093A.191.191,0,0,1,271.043,377.2Z" transform="translate(-270.877 -377.203)" fill="#01112e" fill-rule="evenodd"/>
      </g>
    </g>
    <g id="Group_132" data-name="Group 132" transform="translate(1.103 10.224)">
      <g id="Group_131" data-name="Group 131">
        <path id="Path_67" data-name="Path 67" d="M262.269,374.127l-.136.159c-.083,0-.175-.073-.267-.162C261.906,373.9,262.187,373.908,262.269,374.127Z" transform="translate(-261.866 -373.958)" fill="#01112e" fill-rule="evenodd"/>
      </g>
    </g>
    <g id="Group_134" data-name="Group 134" transform="translate(4.046 15.215)">
      <g id="Group_133" data-name="Group 133">
        <path id="Path_68" data-name="Path 68" d="M270.931,388.725c-.02.174-.381.15-.442-.037C270.621,388.5,270.775,388.592,270.931,388.725Z" transform="translate(-270.489 -388.581)" fill="#01112e" fill-rule="evenodd"/>
      </g>
    </g>
    <g id="Group_136" data-name="Group 136" transform="translate(11.615 22.327)">
      <g id="Group_135" data-name="Group 135">
        <path id="Path_69" data-name="Path 69" d="M292.665,409.594c.2-.384.459-.005.684-.09C293.437,409.755,292.75,410.007,292.665,409.594Z" transform="translate(-292.665 -409.419)" fill="#01112e" fill-rule="evenodd"/>
      </g>
    </g>
    <g id="Group_138" data-name="Group 138" transform="translate(26.419 36.172)">
      <g id="Group_137" data-name="Group 137">
        <path id="Path_70" data-name="Path 70" d="M336.778,451.225a1.366,1.366,0,0,1-.737-.56.635.635,0,1,1,1.269-.063A.9.9,0,0,1,336.778,451.225Zm-.234-.673c.082.107.091.168.225.128-.059-.093.159-.209-.023-.292A.339.339,0,0,0,336.544,450.552Z" transform="translate(-336.041 -449.987)" fill="#01112e" fill-rule="evenodd"/>
      </g>
    </g>
    <g id="Group_140" data-name="Group 140" transform="translate(26.922 36.574)">
      <g id="Group_139" data-name="Group 139">
        <path id="Path_71" data-name="Path 71" d="M337.716,451.164c.182.083-.036.2.023.292-.134.039-.144-.022-.225-.128A.339.339,0,0,1,337.716,451.164Z" transform="translate(-337.514 -451.164)" fill="#00b8d7" fill-rule="evenodd"/>
      </g>
    </g>
    <g id="Group_142" data-name="Group 142" transform="translate(16.594 28.158)">
      <g id="Group_141" data-name="Group 141">
        <path id="Path_72" data-name="Path 72" d="M307.622,426.675c-.141.144-.294.127-.368-.039A.189.189,0,0,1,307.622,426.675Z" transform="translate(-307.254 -426.504)" fill="#01112e" fill-rule="evenodd"/>
      </g>
    </g>
    <g id="Group_144" data-name="Group 144" transform="translate(0 14.616)">
      <g id="Group_143" data-name="Group 143">
        <path id="Path_73" data-name="Path 73" d="M259.08,387.1c-.13.047-.255.161-.4,0,.033-.04-.021-.07-.044-.105l.135-.157A.4.4,0,0,1,259.08,387.1Z" transform="translate(-258.633 -386.828)" fill="#01112e" fill-rule="evenodd"/>
      </g>
    </g>
    <g id="Group_146" data-name="Group 146" transform="translate(29.873 40.562)">
      <g id="Group_145" data-name="Group 145">
        <path id="Path_74" data-name="Path 74" d="M346.766,462.995c.007.059-.067.127-.022.183-.167.169-.346.237-.536.079.03-.036-.023-.068-.047-.1C346.237,462.885,346.533,462.707,346.766,462.995Z" transform="translate(-346.161 -462.848)" fill="#01112e" fill-rule="evenodd"/>
      </g>
    </g>
    <g id="Group_148" data-name="Group 148" transform="translate(22.831 35.989)">
      <g id="Group_147" data-name="Group 147">
        <path id="Path_75" data-name="Path 75" d="M326.213,449.527a.548.548,0,0,1-.4.394c-.181-.1-.237-.131-.283-.3l.1-.118A.749.749,0,0,1,326.213,449.527Z" transform="translate(-325.528 -449.45)" fill="#01112e" fill-rule="evenodd"/>
      </g>
    </g>
    <g id="Group_150" data-name="Group 150" transform="translate(11.132 25.846)">
      <g id="Group_149" data-name="Group 149">
        <path id="Path_76" data-name="Path 76" d="M291.726,419.955c-.045.166-.131.189-.271.242a.4.4,0,0,1-.207-.314C291.377,419.614,291.674,419.747,291.726,419.955Z" transform="translate(-291.248 -419.732)" fill="#01112e" fill-rule="evenodd"/>
      </g>
    </g>
    <g id="Group_152" data-name="Group 152" transform="translate(16.132 31.36)">
      <g id="Group_151" data-name="Group 151">
        <path id="Path_77" data-name="Path 77" d="M306.486,436.151c-.18.269-.473.258-.587-.023C306.069,435.765,306.481,435.843,306.486,436.151Z" transform="translate(-305.899 -435.886)" fill="#01112e" fill-rule="evenodd"/>
      </g>
    </g>
    <g id="Group_154" data-name="Group 154" transform="translate(4.498 21.919)">
      <g id="Group_153" data-name="Group 153">
        <path id="Path_78" data-name="Path 78" d="M272.345,408.391a.507.507,0,0,1-.495.188C271.655,408.3,272.275,408.046,272.345,408.391Z" transform="translate(-271.812 -408.225)" fill="#01112e" fill-rule="evenodd"/>
      </g>
    </g>
  </g>
  <g id="Group_157" data-name="Group 157" transform="translate(111.838 2.492)">
    <g id="Group_156" data-name="Group 156">
      <path id="Path_79" data-name="Path 79" d="M435.491,219.265c0,16.291-10.237,38.834-10.126,38.664,10.563-10.785,16.018-24.441,16.018-40.732a59.831,59.831,0,0,0-82.534-55.331,59.841,59.841,0,0,1,76.643,57.4Z" transform="translate(-358.848 -157.391)" fill="#038c93"/>
    </g>
  </g>
  <g id="Group_159" data-name="Group 159" transform="translate(105.802 140.406)">
    <g id="Group_158" data-name="Group 158">
      <path id="Path_80" data-name="Path 80" d="M341.168,582.153c.433-.206.847-.376,1.237-.57s.763-.377,1.106-.574a7.734,7.734,0,0,0,.941-.63,5.926,5.926,0,0,0,.739-.709l-.088.124c.142-.222.324-.486.5-.728l.561-.74a4.96,4.96,0,0,0,.876-1.621l0,.037a5.609,5.609,0,0,0-.082-1.878,10.47,10.47,0,0,0-.6-1.807l-.368-.855-.045-.1-.022-.054-.005-.012v0c.027.095.007.024.012.045l0-.008-.014-.031-.1-.233-.187-.463c-.239-.619-.472-1.241-.672-1.875a13.2,13.2,0,0,1-.609-3.958,11.436,11.436,0,0,1,.177-2.057,5.234,5.234,0,0,1,.76-1.972l.228.06a30.95,30.95,0,0,0,.921,3.684,36.282,36.282,0,0,1,.914,3.642l.349,1.868.094.463.042.231.005.027v.006l.015.052v0l0,.017.009.065.016.129a8.511,8.511,0,0,1,.05,1.037c0,.692-.062,1.372-.1,2.038s-.035,1.312-.02,2v-.01l0,.045c-.062.685-.124,1.375-.239,2.066a7.379,7.379,0,0,1-.234,1.016,5.2,5.2,0,0,1-.41.972l-.027.049-.06.075a4.726,4.726,0,0,1-2.734,1.618,5.322,5.322,0,0,1-1.493.1,4.407,4.407,0,0,1-1.437-.336Z" transform="translate(-341.163 -561.476)" fill="#038c93"/>
    </g>
  </g>
  <g id="Group_161" data-name="Group 161" transform="translate(86.017 95.719)">
    <g id="Group_160" data-name="Group 160">
      <path id="Path_81" data-name="Path 81" d="M368.244,445.432c-1.361.943-.422.934-2.824,4.15-2.707,3.227-4.806,10.743-2.025,15.256a16.42,16.42,0,0,0,.794,1.455c1.325,1.56,3.9,1.717,5.018,3.08a7.3,7.3,0,0,1,1.143,5.223c-.829,1.491-1.962,2.883-3.874,2.7-2.557-.24-4.287-3.284-4.225-6.083-.931.568-.461,2.815-.174,3.761a6.342,6.342,0,0,0-1.5,2.9c1.181-.055,1.386-1.691,2.38-1.639.076.693-.7,1.132-1.062,1.828a12.337,12.337,0,0,0-.7,2.127c-.181.637-.644,1.547-.087,2.128,1.03-1.451,1.449-4.075,2.906-4.738.074.587-.418.964-.618,1.452a14.571,14.571,0,0,0-.88,6.18c.137,1.945.681,3.8.88,6.089.381,4.381,1.881,8.159,2.2,12.741.162,2.252-.207,5.158-1.232,6.179a6.082,6.082,0,0,1-8.1.389,8.039,8.039,0,0,1-2.374-4.827,66.551,66.551,0,0,1-.089-7.435c0-7.769.4-15.969.176-22.792a9.356,9.356,0,0,0,4.136-7.337,21.373,21.373,0,0,0-.612-4.055c-.218-1.067-.681-2.1-.969-3.191a28.235,28.235,0,0,1-.881-3.281,7.161,7.161,0,0,1,1.495-4.725c1.056-1.5,2.762-2.173,3.523-3.771-2.405-.361-4.718,2.326-5.9,4.441a7.915,7.915,0,0,0-1.145,4.342c.162,2.194,1.263,4.461,1.763,6.569a19.187,19.187,0,0,1,.612,3.865c-.087,3.048-2.243,6.061-5.112,5.7a4.345,4.345,0,0,1-3.78-4.351c-.082-1.99.919-4.151.787-6.467-.161-2.89-.912-5.334-3.43-5.412.1-.917,1.093-.4,1.582-.286a15.907,15.907,0,0,1,1.672.481c-.2-.9-1.6-1.33-2.73-1.542.356-1.378,1.981.033,2.9.1-.26-.967-1.174-1.22-2.112-1.445.157-1.179,1.163-.555,2.026-.486-.032-.8-.875-.713-1.145-1.255.269-.664.912-.151,1.5-.094.1-.665-.493-.557-.706-.871.307-.823.982-1.239,1.229-2.124-2.616,1.891-4.685,5.233-6.073,8.782-.386,3.261-1.612,5.774-2.205,8.5-.931,4.3-.987,9.93-.969,15.349.006,1.558-.406,3.065-.525,4.638-.4,4.975.149,10.056.263,15.065.08,3.711-.132,7.35.262,10.9.188,1.679.689,3.083.794,5.219.105,2.241.9,4.363.969,6.275.055,1.555.018,3.116,0,4.535-.539-1.307-.188-3.589-1.318-4.247-.314,2.727.779,6.467.173,10.033a12.326,12.326,0,0,1-5.374,8.7c1.12.459,2.508-.383,3.175-1.055a2.8,2.8,0,0,1-2.643,2.117,5.768,5.768,0,0,1-4.579-2.117c-2.106-2.206-2.9-3.863-2.731-7.824a31.9,31.9,0,0,1,1.056-8.113,23.307,23.307,0,0,0,.794-2.7,132.826,132.826,0,0,0,2.025-17c.139-3.48,1.038-6.891.62-10.91-.2-1.783-.083-4.381-.184-6.565-.091-2.082-.361-4.152-.436-6.18-.094-2.473.163-4.985-.088-7.238a1.6,1.6,0,0,0,.524-.291c.339,1.037.021,3.147.533,4.243,1.144-.576.025-3.638.794-4.632.369.3.049,1.363.436,1.638.556-.576.269-2.082.794-2.7a1.878,1.878,0,0,1,.269.969c.412-.435.205-1.055.349-1.638a21.832,21.832,0,0,0,.795-2.513,12.88,12.88,0,0,0-1.237-6.466c.073-.406.379-1.139,0-1.455,1.506-1.76,3.123-3.738,4.667-5.8a16.048,16.048,0,0,0,3.524-8.78c.214-3.027-5.16-11.529-4.493-9.849.92,2.265,2.15,6.227,1.938,9.459-.337,5.335-3.581,7.557-5.811,11.008.1-1.719,1.456-2.906,1.764-4.728a4.386,4.386,0,0,0-2.47,2.509c.506-2.119,1.918-4.086,2.818-6.082-2.362,1.435-5.959,4.279-5.456,9.265.057.612.364,1.317.526,2.133.145.7.25,1.421.445,2.115.648,2.363,2.98,7.584-.271,8.979a9.014,9.014,0,0,1-3.7.29c-2.7-.3-5.043-3.411-3.874-7.146.618-1.974,2.038-3.574,1.943-6.561-.117-3.412-2.549-6.455-6.255-6.083.813-1.461,2.343-2.125,3.786-2.9-.781-.733-1.811.016-2.468.385a5.132,5.132,0,0,0-1.938,1.455c.856-2.12,3.407-3.222,4.843-5.022-1.086-.253-2.018.458-2.817.965-2.036,1.282-4,2.5-4.318,5.7s2.063,4.551,1.762,7.624a5.14,5.14,0,0,1-4.4,4.829c-3.732.629-7.037-1.774-6.08-6.371.3-1.445,1.375-2.828,1.5-4.638a8.365,8.365,0,0,0-1.062-4.925c-.9-1.32-4.569-3.37-6.429-1.835.405.474,1.142.474,1.761.678a4.823,4.823,0,0,1,1.675.774c-.862.24-2.024.159-2.2,1.157,1.125.24,2.763-.163,3.606.774-.781.028-2.062.119-2.374.968.463.556,1.668.294,2.287.671-.633,2.5-5.168,2.769-6.694,1.066a7.637,7.637,0,0,1-1.229-3.095c-.826-4.479,2.549-7.089,4.842-9.076-.8-.677-1.744.228-2.376.677a13.17,13.17,0,0,0-2.03,1.542c-.17.138-.5.1-.7.194-2.586,3.274-2.325,10.952,1.492,12.563-.217,1.978,1.007,2.87.358,4.623a5.8,5.8,0,0,1-5.025,3.191,3.913,3.913,0,0,1-3.7-3.863c-.032-1.1.593-2.732.705-4.151.087-1.124-.512-2.089-.438-2.706.05-.45.687-.747.969-1.252,1.313-2.372-.3-6.38-2.293-6.666-.462.863.63,1.541.968,2.418.813,2.063.1,4.4-1.85,4.632-2.044.247-3.437-1.569-3.256-3.667a7.356,7.356,0,0,1,.7-1.933c.267-.615.449-1.354.7-1.927.687-1.537,1.67-2.126,1.414-4.639a3.85,3.85,0,0,0-.969-2.219c-.575,1.085-.1,2.971-.618,4.245-.489-3.864-2.338-6.946-2.642-11.009-.147-1.929-2.34-4.209-2.47-2.506-.382,5.041,1.52,8.508,2.818,11.68a13.728,13.728,0,0,1,.969,3.864c-.1,1.542-1.644,2.683-1.851,4.35A5.386,5.386,0,0,0,291,457.109c-.1,3.119-1.118,5.99.089,8.5.961,2,4.222,3.664,6.953,2.993a14.021,14.021,0,0,1,1.15,6.373c-.113,1.641-.87,2.814-1.324,4.157-.858,2.519-2.262,4.966-2.733,7.527a11.39,11.39,0,0,0,3.176,9.948,8.132,8.132,0,0,0,9.423,1.445c2.018-.924,3.567-3.709,4.137-5.987,1.373-5.462-2.4-9.946-2.024-15.742.162-2.438.787-4.591,1.055-7.242,3.23,1.112,6.855.59,8.635-1.738a9.679,9.679,0,0,0,1.581-7.53c-.295-1.1-1.355-2.663-.788-3.471,2.113-.323,3.481,1.846,3.7,3.662.382,3.185-2.069,5.26-2.118,8.6-.082,5.331,3.43,8.222,8.017,8.3a5.676,5.676,0,0,1,0,2.514,108.524,108.524,0,0,0,.618,12.647c.1,1.336.47,2.679.526,3.958a44.407,44.407,0,0,1-.176,4.831c-.2,2.869-.586,5.747-.793,8.59-.206,2.918-.6,5.745-.7,8.6-.8,2.035-.857,4.253-1.32,6.373-.424,1.939-1.188,3.665-1.5,5.6-.425,2.663-.937,6.657-.261,9.37.693,2.768,3.366,6.345,5.635,7.431a6.653,6.653,0,0,0,5.812.1c1.88-1.068,3.063-4.095,3.968-6.468a21.914,21.914,0,0,0,1.493-5.7c.08-1.089-.262-2.409-.262-3.761,0-1.1.257-2.186.174-3.19-.05-.618-.294-1.236-.349-1.828-.074-.749.05-1.5,0-2.223-.088-1.342-.475-2.737-.618-4.157a29.309,29.309,0,0,0-.527-4.925,15.409,15.409,0,0,1-.793-1.829,30.393,30.393,0,0,1,0-3.671c-.093-3.657-.174-7.578-.174-11.1a101.528,101.528,0,0,1,.086-10.521,28.427,28.427,0,0,0,.35-3.386c-.018-.657-.224-1.115-.263-1.733-.151-2.231.05-4.574.087-6.76a52.282,52.282,0,0,1,.526-6.571c.413-2.774,1.593-5.262,2.118-7.722a4.411,4.411,0,0,1,.437-1.834c2.43.3,2.23,2.856,2.112,4.729s-.9,3.842-.88,5.506c.08,4.4,3.393,6.679,7.492,6.371-.275,7.309-.618,14.687-.618,22.216a69.49,69.49,0,0,0,.086,7.818c.495,4.185,4,8.183,8.279,7.918a8.975,8.975,0,0,0,5.107-2.414c1.481-1.492,2.054-4.691,1.943-7.917-.169-4.753-1.593-8.043-2.031-12.366-.218-2.214-.78-4.486-.882-6.371-.118-2.355.263-4.74,1.5-6.273a4.915,4.915,0,0,0,4.313-1.261,7.089,7.089,0,0,0,1.5-2.316,8.6,8.6,0,0,0-.174-4.725,7.179,7.179,0,0,0-3.612-4.151,20.563,20.563,0,0,1-1.938-.871,6.343,6.343,0,0,1-1.937-2.8c-.887-2.769-.281-6.089.706-8.692.837-1.227,1.394-2.576,2.2-3.864A20.6,20.6,0,0,1,370,446.876a21.552,21.552,0,0,0,4.848-7.238,24.379,24.379,0,0,0,1.232-8.5C376.061,430.807,374.516,441.087,368.244,445.432Zm-58.751,45.286a11.01,11.01,0,0,1-1.411,3.571c-.863,1.272-3.463,1.991-4.843,1.932a6.052,6.052,0,0,1-3.524-1.932c-2.774-3.227-.163-9.407,1.142-12.263.819-1.774,2.088-3.233,2.295-5.118A9.275,9.275,0,0,0,300.244,480a17.451,17.451,0,0,0,1.319-8.109,18.754,18.754,0,0,0-1.319-4.344c2.033-1.348,4.312-5.293,1.85-8.2a8.478,8.478,0,0,0,3.344,0c-.394,1.049-1.119,1.727-1.406,2.89,1.488-.93,1.932-3.033,3.525-3.857.156-.025.181.09.086.1a73.979,73.979,0,0,0-3.522,7.729c.68,0,.93-.974,1.317-1.548a9.906,9.906,0,0,0,1.237-1.828c.676,3.062-2.011,4.341-1.849,7.138,1.15-.927,1.644-2.569,2.55-3.761.249.368.637.59.793,1.054a14.968,14.968,0,0,0-2.462,7.056c.892-.7,1.206-1.964,1.755-2.994s1.106-2.069,1.587-3.091c-.462,2.728-1.212,4.543-1.587,7.235C306.649,481.458,309.9,485.534,309.493,490.717Z" transform="translate(-283.192 -430.544)" fill="#01112e" fill-rule="evenodd"/>
    </g>
  </g>
  <g id="Group_163" data-name="Group 163" transform="translate(164.046 172.645)">
    <g id="Group_162" data-name="Group 162">
      <path id="Path_82" data-name="Path 82" d="M511.832,656.459c-.13-.461.55-.535,1.047-.524.472.012.977.26.925.792a.533.533,0,0,1-.179.3,1.5,1.5,0,0,1-1.353.04,1.064,1.064,0,0,1-.157-.142.831.831,0,0,1-.146-.149.665.665,0,0,1-.022-.105A1.981,1.981,0,0,1,511.832,656.459Zm.36.312c.059.053.115.127.16.158a1.232,1.232,0,0,0,1.172-.017.483.483,0,0,0-.114-.677,1.444,1.444,0,0,0-.9-.156c-.364.013-.606.129-.534.389A.588.588,0,0,0,512.192,656.77Z" transform="translate(-511.816 -655.934)" fill="#01112e" fill-rule="evenodd"/>
    </g>
  </g>
  <g id="Group_165" data-name="Group 165" transform="translate(142.798 44.378)">
    <g id="Group_164" data-name="Group 164">
      <path id="Path_83" data-name="Path 83" d="M449.56,280.118a87.765,87.765,0,0,1,11.981,1.253,103.928,103.928,0,0,1,11.753,2.712,84.041,84.041,0,0,1,11.289,4.259c1.82.86,3.608,1.787,5.345,2.8a55.219,55.219,0,0,1,5.02,3.333c-1.679-1.1-3.393-2.141-5.161-3.081q-2.638-1.437-5.391-2.64a91.048,91.048,0,0,0-11.269-4.108,115.2,115.2,0,0,0-11.665-2.832q-2.949-.574-5.927-.993Q452.559,280.378,449.56,280.118Z" transform="translate(-449.56 -280.118)" fill="#038c93"/>
    </g>
  </g>
  <g id="Group_167" data-name="Group 167" transform="translate(170.761 54.947)">
    <g id="Group_166" data-name="Group 166">
      <path id="Path_84" data-name="Path 84" d="M531.491,339.963a31.9,31.9,0,0,0,2.192-3.167,37.7,37.7,0,0,0,1.864-3.357,36.373,36.373,0,0,0,2.686-7.16,31.529,31.529,0,0,0,1.068-7.56,33.045,33.045,0,0,0-.75-7.635,27.9,27.9,0,0,1,.882,3.767,28.41,28.41,0,0,1-.631,11.576,33.995,33.995,0,0,1-2.856,7.219A29.945,29.945,0,0,1,531.491,339.963Z" transform="translate(-531.491 -311.084)" fill="#038c93"/>
    </g>
  </g>
  <g id="Group_169" data-name="Group 169" transform="translate(93.067 40.094)">
    <g id="Group_168" data-name="Group 168">
      <path id="Path_85" data-name="Path 85" d="M304.705,267.94c-.222-.122-.441-.25-.661-.374-.065.252-.127.506-.194.758Z" transform="translate(-303.85 -267.566)" fill="#01112e"/>
    </g>
  </g>
  <g id="Group_170" data-name="Group 170" transform="translate(82.04 83.338)">
    <path id="Path_86" data-name="Path 86" d="M274.889,409.883c-.225-.317-.4-.6-.577-.9s-.341-.6-.5-.91q-.473-.92-.848-1.876a20.625,20.625,0,0,1-1.123-3.927,18.663,18.663,0,0,1-.287-4.038,17.726,17.726,0,0,1,.61-3.959,17.462,17.462,0,0,0-.207,3.955,18,18,0,0,0,.668,3.861,19.65,19.65,0,0,0,1.438,3.61c.3.574.619,1.133.969,1.671q.261.4.542.789c.184.252.388.516.571.724Z" transform="translate(-271.542 -394.268)" fill="#01112e"/>
  </g>
  <g id="Group_171" data-name="Group 171" transform="translate(84.167 88.568)">
    <path id="Path_87" data-name="Path 87" d="M280.032,420.8c-.166-.24-.283-.444-.409-.667s-.238-.44-.346-.662q-.327-.669-.584-1.359a14.752,14.752,0,0,1-.749-2.828,13.266,13.266,0,0,1-.147-2.887,12.549,12.549,0,0,1,.491-2.806,12.394,12.394,0,0,0-.088,2.8,12.631,12.631,0,0,0,.53,2.71,13.823,13.823,0,0,0,1.064,2.511c.217.4.453.783.7,1.153.126.185.257.366.39.542s.281.356.4.486Z" transform="translate(-277.772 -409.591)" fill="#01112e"/>
  </g>
  <g id="Group_172" data-name="Group 172" transform="translate(85.928 91.752)">
    <path id="Path_88" data-name="Path 88" d="M283.5,427.212c-.083-.211-.13-.375-.183-.559s-.093-.358-.133-.537c-.079-.357-.138-.716-.18-1.075a10.8,10.8,0,0,1-.041-2.148,9.324,9.324,0,0,1,1.23-3.972,8.924,8.924,0,0,0-.425,3.962,9.788,9.788,0,0,0,.418,1.906,9.382,9.382,0,0,0,.342.9c.063.146.132.289.2.428a4.021,4.021,0,0,0,.215.382Z" transform="translate(-282.932 -418.921)" fill="#01112e"/>
  </g>
  <g id="Group_173" data-name="Group 173" transform="translate(79.853 82.959)">
    <path id="Path_89" data-name="Path 89" d="M265.705,401.45c-.083-.212-.129-.375-.182-.559s-.094-.358-.134-.536c-.078-.357-.138-.716-.181-1.075a10.814,10.814,0,0,1-.041-2.149,9.335,9.335,0,0,1,1.231-3.973,8.923,8.923,0,0,0-.426,3.962,9.805,9.805,0,0,0,.418,1.907c.1.307.214.608.342.9.064.145.132.288.2.428a4.1,4.1,0,0,0,.214.381Z" transform="translate(-265.132 -393.158)" fill="#01112e"/>
  </g>
  <g id="Group_176" data-name="Group 176" transform="translate(0 44.059)">
    <g id="Group_174" data-name="Group 174" transform="translate(0.268 0.268)">
      <path id="Path_90" data-name="Path 90" d="M87.878,314.068a15.994,15.994,0,0,0-1.531-3.751,12.23,12.23,0,0,0-2.621-3.108,8.721,8.721,0,0,0-3.572-1.914,6.653,6.653,0,0,0-1.726-.124v-.007c-.014,0-.1,0-.214.012-.039,0-.078,0-.117.008a6.613,6.613,0,0,0-1.994.48c-.415-.729-.832-1.457-1.272-2.172l-.01-.017-.021-.024A7.775,7.775,0,0,1,73.023,300a5.756,5.756,0,0,1-.055-1.9,4.922,4.922,0,0,1,.575-1.737,12.934,12.934,0,0,0,2.55-4.188,22.293,22.293,0,0,0,1.286-4.773l.005-.031v-.043a10.629,10.629,0,0,0-.516-3.322,6.058,6.058,0,0,0-1.979-2.858,5.887,5.887,0,0,0-3.3-1.181,9.537,9.537,0,0,0-3.346.706,11.928,11.928,0,0,0-5.189,4.123,11.389,11.389,0,0,0-2.036,6.3,12.018,12.018,0,0,0,1.69,6.313,9.72,9.72,0,0,1,.485,6.018c-.011.067-.028.133-.044.2l-4.458,2.005q-.713.279-1.426.561l-6.2,2.351-12.439,4.581-.035.014-.039.023a14.756,14.756,0,0,0-3.791,3.094,7.406,7.406,0,0,0-1.3,2.2,4.47,4.47,0,0,0-.195,2.582c-.026.028-.057.051-.083.081a4.345,4.345,0,0,0-1.206,3.477v0l.01.033a7.355,7.355,0,0,0,3.2,4.113,9.611,9.611,0,0,0,2.41,1.057,10.885,10.885,0,0,0,2.5.421,8.762,8.762,0,0,0,.828.782,13.139,13.139,0,0,0,2.4,1.517,28.72,28.72,0,0,0,10.724,2.877,37.322,37.322,0,0,0,11.07-.764,47.361,47.361,0,0,0,10.447-3.675l-.046.019a12.123,12.123,0,0,0,2.931-1.73,10.175,10.175,0,0,0,2.29-2.52c.13-.206.246-.42.359-.638a2.148,2.148,0,0,0,1.5-.028,6.823,6.823,0,0,0,1.775-.967,9.722,9.722,0,0,0,2.66-3.041A10.682,10.682,0,0,0,87.878,314.068Z" transform="translate(-31.951 -279.967)" fill="#ffe5c4"/>
    </g>
    <g id="Group_175" data-name="Group 175">
      <path id="Path_91" data-name="Path 91" d="M87.621,313.481a16.243,16.243,0,0,0-1.559-3.817,12.573,12.573,0,0,0-2.678-3.177,8.931,8.931,0,0,0-3.691-1.973,6.02,6.02,0,0,0-3.919.4q-.615-1.077-1.238-2.091l-.048-.063a7.427,7.427,0,0,1-1.717-3.326,5.484,5.484,0,0,1-.054-1.815,4.729,4.729,0,0,1,.526-1.612,13.075,13.075,0,0,0,2.583-4.253,22.4,22.4,0,0,0,1.3-4.826l.009-.057,0-.066a10.763,10.763,0,0,0-.531-3.4,6.351,6.351,0,0,0-2.071-2.986,6.129,6.129,0,0,0-3.464-1.235,9.909,9.909,0,0,0-3.441.725,12.123,12.123,0,0,0-5.309,4.218,11.613,11.613,0,0,0-2.085,6.444A12.17,12.17,0,0,0,61.951,297a9.613,9.613,0,0,1,.462,5.857c-.013.074-.03.147-.048.221a0,0,0,0,1,0,0c-1.548.709-3.161,1.339-4.723,1.949l-.987.387-6.194,2.349-12.442,4.583-.116.058a14.89,14.89,0,0,0-3.86,3.152,7.689,7.689,0,0,0-1.343,2.282,4.818,4.818,0,0,0-.234,2.583,4.6,4.6,0,0,0-1.26,3.686l.018.072a7.607,7.607,0,0,0,3.314,4.263,9.878,9.878,0,0,0,2.48,1.089,11.346,11.346,0,0,0,2.455.425,9.181,9.181,0,0,0,.78.728,13.255,13.255,0,0,0,2.447,1.547,28.692,28.692,0,0,0,10.826,2.905c1,.081,2.013.122,3.017.122a37.487,37.487,0,0,0,8.132-.89,47.653,47.653,0,0,0,10.5-3.691,12.44,12.44,0,0,0,2.946-1.748,10.382,10.382,0,0,0,2.348-2.585c.1-.151.184-.306.264-.455a2.19,2.19,0,0,0,.538.064h0a2.684,2.684,0,0,0,.912-.164,7.233,7.233,0,0,0,1.85-1.005,9.989,9.989,0,0,0,2.733-3.122A10.913,10.913,0,0,0,87.621,313.481Zm-8.229-7.889a7.786,7.786,0,0,1,3,1.959,12.765,12.765,0,0,1,2.209,2.921,15.245,15.245,0,0,1,1.34,3.447A10.35,10.35,0,0,1,85.466,321a8.843,8.843,0,0,1-2.159,2.927,6.05,6.05,0,0,1-1.453,1.077,2.157,2.157,0,0,1-.8.23,8.073,8.073,0,0,0,.624-2.212,9.778,9.778,0,0,0-.182-3.486l-.015-.067-.05-.112a10.194,10.194,0,0,0-4.413-4.268,6.655,6.655,0,0,0-2.9-.638,7.674,7.674,0,0,0-3.225.717,36.033,36.033,0,0,0-5.007,3.123,25.028,25.028,0,0,0-2.3,1.861l-.061.06a5.783,5.783,0,0,0-1.708,2.389l.512.163A5.224,5.224,0,0,1,64,320.737l.067-.058a26.05,26.05,0,0,1,2.3-1.7,36.191,36.191,0,0,1,4.964-2.812,7,7,0,0,1,2.617-.53,5.473,5.473,0,0,1,2.531.59,8.742,8.742,0,0,1,3.657,3.7A8.269,8.269,0,0,1,80.2,322.8a7.194,7.194,0,0,1-1.047,2.714,8.841,8.841,0,0,1-2.017,2.175,10.866,10.866,0,0,1-2.584,1.5l-.064.027a46.013,46.013,0,0,1-10.17,3.48,38.093,38.093,0,0,1-10.657.793A27.394,27.394,0,0,1,43.4,330.847c-1.474-.753-3.074-1.714-3.768-3.14-.722-1.394.185-3.062,1.335-4.024l.063-.058a4,4,0,0,1,3-1.129,6.55,6.55,0,0,1,.856.058,15.687,15.687,0,0,1,4.36,1.325,34.369,34.369,0,0,1,4.112,2.219c1.537.97,2.768,1.819,3.877,2.672l.338-.417a40.21,40.21,0,0,0-7.9-5.373,15.919,15.919,0,0,0-4.627-1.588,7.089,7.089,0,0,0-2.572.048,4.757,4.757,0,0,0-2.319,1.236h0l-.041.037a6.176,6.176,0,0,0-1.81,2.379,4.113,4.113,0,0,0-.061,3.015c-.279-.046-.54-.1-.787-.163a8.273,8.273,0,0,1-2.107-.844,6.091,6.091,0,0,1-2.761-3.309,3.359,3.359,0,0,1,.876-2.523,7.585,7.585,0,0,1,2.521-1.855,22.142,22.142,0,0,1,6.395-1.756c2.382-.377,4.586-.629,6.738-.768a38.369,38.369,0,0,1,6.76.079l.008-.062c.319,1,.653,2.1,1.034,3.4.948,3.235,1.871,6.6,2.823,10.29l.067.263,1.1-.3-.075-.262c-1.053-3.66-2.073-7.009-3.119-10.241-.652-2.006-1.2-3.616-1.736-5.069-.365-.992-.675-1.788-.979-2.507l-.116-.263a10.109,10.109,0,0,0-1.157-2.154l-.431.32a9.667,9.667,0,0,1,1.028,2.06l.111.271c.279.715.554,1.486.9,2.5.13.387.259.783.391,1.193a36.126,36.126,0,0,0-4.878-.3c-.562,0-1.14.01-1.766.028-2.176.071-4.413.253-6.838.558a22.813,22.813,0,0,0-6.767,1.642,10.784,10.784,0,0,0-1.363.737,3.456,3.456,0,0,1,.157-.7,6.014,6.014,0,0,1,1-1.826,13.247,13.247,0,0,1,3.335-2.9l12.212-4.964,6.121-2.557.987-.425c1.407-.6,2.856-1.227,4.263-1.912-.063.228-.133.459-.206.7-.141.461-.285.939-.392,1.433a16.663,16.663,0,0,0-.44,3.262,8.761,8.761,0,0,0,1.928,6.212l.406-.351a8.4,8.4,0,0,1-1.416-5.812,15.7,15.7,0,0,1,.575-3.041c.11-.4.245-.785.389-1.2a15.582,15.582,0,0,0,.565-1.884,10.668,10.668,0,0,0-.372-6.714,11.415,11.415,0,0,1-1.422-5.784,10.036,10.036,0,0,1,1.841-5.523,10.577,10.577,0,0,1,4.606-3.591,8.861,8.861,0,0,1,2.771-.589,4.442,4.442,0,0,1,2.49.858c1.671,1.245,1.971,3.66,2,5.005a21.123,21.123,0,0,1-1.149,4.413,12.73,12.73,0,0,1-2.264,3.905l-.09.119a5.948,5.948,0,0,0-.682,2.24,6.781,6.781,0,0,0,.138,2.27,8.683,8.683,0,0,0,2.086,3.8c.411.635.831,1.286,1.253,1.951l.191.3c.617.979,1.235,1.986,1.829,3.01.606,1.044,1.075,1.912,1.476,2.728l.16.338a8.583,8.583,0,0,1,.887,2.5l.534-.052a9.491,9.491,0,0,0-.84-2.957l-.057-.141c-.362-.847-.793-1.756-1.356-2.859-.526-1.021-1.043-1.987-1.563-2.912A5.5,5.5,0,0,1,79.392,305.592Z" transform="translate(-31.167 -279.181)" fill="#01112e"/>
    </g>
  </g>
</svg>
